%TF.GenerationSoftware,KiCad,Pcbnew,(6.99.0-2635-gfc1afa6298)*%
%TF.CreationDate,2022-08-07T14:50:02-07:00*%
%TF.ProjectId,seatalk_wifi,73656174-616c-46b5-9f77-6966692e6b69,rev?*%
%TF.SameCoordinates,Original*%
%TF.FileFunction,Paste,Top*%
%TF.FilePolarity,Positive*%
%FSLAX46Y46*%
G04 Gerber Fmt 4.6, Leading zero omitted, Abs format (unit mm)*
G04 Created by KiCad (PCBNEW (6.99.0-2635-gfc1afa6298)) date 2022-08-07 14:50:02*
%MOMM*%
%LPD*%
G01*
G04 APERTURE LIST*
G04 Aperture macros list*
%AMRoundRect*
0 Rectangle with rounded corners*
0 $1 Rounding radius*
0 $2 $3 $4 $5 $6 $7 $8 $9 X,Y pos of 4 corners*
0 Add a 4 corners polygon primitive as box body*
4,1,4,$2,$3,$4,$5,$6,$7,$8,$9,$2,$3,0*
0 Add four circle primitives for the rounded corners*
1,1,$1+$1,$2,$3*
1,1,$1+$1,$4,$5*
1,1,$1+$1,$6,$7*
1,1,$1+$1,$8,$9*
0 Add four rect primitives between the rounded corners*
20,1,$1+$1,$2,$3,$4,$5,0*
20,1,$1+$1,$4,$5,$6,$7,0*
20,1,$1+$1,$6,$7,$8,$9,0*
20,1,$1+$1,$8,$9,$2,$3,0*%
G04 Aperture macros list end*
%ADD10R,0.875000X0.950000*%
%ADD11RoundRect,0.218750X0.256250X-0.218750X0.256250X0.218750X-0.256250X0.218750X-0.256250X-0.218750X0*%
%ADD12R,0.950000X0.875000*%
%ADD13R,1.850000X2.800000*%
%ADD14R,0.900000X0.800000*%
%ADD15R,1.500000X0.450000*%
%ADD16R,1.150000X1.400000*%
%ADD17R,1.250000X1.750000*%
%ADD18R,0.650000X1.060000*%
G04 APERTURE END LIST*
D10*
%TO.C,R4*%
X151012499Y-95249999D03*
X152587499Y-95249999D03*
%TD*%
D11*
%TO.C,D1*%
X134800000Y-108787500D03*
X134800000Y-107212500D03*
%TD*%
D10*
%TO.C,R10*%
X152587499Y-96809999D03*
X151012499Y-96809999D03*
%TD*%
D12*
%TO.C,C7*%
X149499999Y-96827499D03*
X149499999Y-95252499D03*
%TD*%
D13*
%TO.C,L1*%
X145952199Y-99913299D03*
X148252199Y-99913299D03*
%TD*%
D12*
%TO.C,C9*%
X132486399Y-100532999D03*
X132486399Y-102107999D03*
%TD*%
D14*
%TO.C,Q1*%
X128768599Y-94960399D03*
X128768599Y-96860399D03*
X130768599Y-95910399D03*
%TD*%
D12*
%TO.C,R2*%
X136399999Y-107212499D03*
X136399999Y-108787499D03*
%TD*%
%TO.C,C1*%
X143699999Y-108037499D03*
X143699999Y-106462499D03*
%TD*%
D15*
%TO.C,U3*%
X135022799Y-98258199D03*
X135022799Y-98908199D03*
X135022799Y-99558199D03*
X135022799Y-100208199D03*
X135022799Y-100858199D03*
X135022799Y-101508199D03*
X135022799Y-102158199D03*
X135022799Y-102808199D03*
X140922799Y-102808199D03*
X140922799Y-102158199D03*
X140922799Y-101508199D03*
X140922799Y-100858199D03*
X140922799Y-100208199D03*
X140922799Y-99558199D03*
X140922799Y-98908199D03*
X140922799Y-98258199D03*
%TD*%
D16*
%TO.C,C5*%
X146419999Y-104749999D03*
X148119999Y-104749999D03*
%TD*%
D12*
%TO.C,R11*%
X139599999Y-108087499D03*
X139599999Y-106512499D03*
%TD*%
D10*
%TO.C,R8*%
X139776299Y-96773999D03*
X138201299Y-96773999D03*
%TD*%
D17*
%TO.C,C6*%
X152723199Y-103513999D03*
X149923199Y-103513999D03*
%TD*%
D10*
%TO.C,C13*%
X146387499Y-97409999D03*
X144812499Y-97409999D03*
%TD*%
%TO.C,R6*%
X132816699Y-92659199D03*
X131241699Y-92659199D03*
%TD*%
D12*
%TO.C,C8*%
X132486399Y-97485099D03*
X132486399Y-99060099D03*
%TD*%
D10*
%TO.C,C12*%
X136601299Y-96773999D03*
X135026299Y-96773999D03*
%TD*%
%TO.C,C11*%
X136296499Y-104139999D03*
X134721499Y-104139999D03*
%TD*%
D18*
%TO.C,U1*%
X150339999Y-101009999D03*
X151289999Y-101009999D03*
X152239999Y-101009999D03*
X152239999Y-98809999D03*
X151289999Y-98809999D03*
X150339999Y-98809999D03*
%TD*%
D14*
%TO.C,Q2*%
X128768599Y-99769999D03*
X128768599Y-101669999D03*
X130768599Y-100719999D03*
%TD*%
D12*
%TO.C,C2*%
X130505199Y-106705299D03*
X130505199Y-108280299D03*
%TD*%
%TO.C,C4*%
X132079999Y-106705299D03*
X132079999Y-108280299D03*
%TD*%
%TO.C,R3*%
X147899999Y-96827499D03*
X147899999Y-95252499D03*
%TD*%
D10*
%TO.C,R7*%
X132816699Y-91135199D03*
X131241699Y-91135199D03*
%TD*%
D12*
%TO.C,C10*%
X142747999Y-97993099D03*
X142747999Y-99568099D03*
%TD*%
%TO.C,R1*%
X142149999Y-106462499D03*
X142149999Y-108037499D03*
%TD*%
D10*
%TO.C,R9*%
X130757499Y-103939999D03*
X129182499Y-103939999D03*
%TD*%
D16*
%TO.C,C3*%
X146419999Y-102779999D03*
X148119999Y-102779999D03*
%TD*%
D10*
%TO.C,R5*%
X138480899Y-93471999D03*
X136905899Y-93471999D03*
%TD*%
M02*
