%TF.GenerationSoftware,KiCad,Pcbnew,(6.99.0-2635-gfc1afa6298)*%
%TF.CreationDate,2022-08-07T14:50:02-07:00*%
%TF.ProjectId,seatalk_wifi,73656174-616c-46b5-9f77-6966692e6b69,rev?*%
%TF.SameCoordinates,Original*%
%TF.FileFunction,AssemblyDrawing,Bot*%
%FSLAX46Y46*%
G04 Gerber Fmt 4.6, Leading zero omitted, Abs format (unit mm)*
G04 Created by KiCad (PCBNEW (6.99.0-2635-gfc1afa6298)) date 2022-08-07 14:50:02*
%MOMM*%
%LPD*%
G01*
G04 APERTURE LIST*
%ADD10C,0.150000*%
%ADD11C,0.080000*%
%ADD12C,0.100000*%
%ADD13C,0.120000*%
G04 APERTURE END LIST*
D10*
%TO.C,SW2*%
X128719761Y-91928571D02*
X128767380Y-92071428D01*
X128767380Y-92071428D02*
X128767380Y-92309523D01*
X128767380Y-92309523D02*
X128719761Y-92404761D01*
X128719761Y-92404761D02*
X128672142Y-92452380D01*
X128672142Y-92452380D02*
X128576904Y-92499999D01*
X128576904Y-92499999D02*
X128481666Y-92499999D01*
X128481666Y-92499999D02*
X128386428Y-92452380D01*
X128386428Y-92452380D02*
X128338809Y-92404761D01*
X128338809Y-92404761D02*
X128291190Y-92309523D01*
X128291190Y-92309523D02*
X128243571Y-92119047D01*
X128243571Y-92119047D02*
X128195952Y-92023809D01*
X128195952Y-92023809D02*
X128148333Y-91976190D01*
X128148333Y-91976190D02*
X128053095Y-91928571D01*
X128053095Y-91928571D02*
X127957857Y-91928571D01*
X127957857Y-91928571D02*
X127862619Y-91976190D01*
X127862619Y-91976190D02*
X127815000Y-92023809D01*
X127815000Y-92023809D02*
X127767380Y-92119047D01*
X127767380Y-92119047D02*
X127767380Y-92357142D01*
X127767380Y-92357142D02*
X127815000Y-92499999D01*
X127767380Y-92833333D02*
X128767380Y-93071428D01*
X128767380Y-93071428D02*
X128053095Y-93261904D01*
X128053095Y-93261904D02*
X128767380Y-93452380D01*
X128767380Y-93452380D02*
X127767380Y-93690476D01*
X128862619Y-93833333D02*
X128862619Y-94595237D01*
X128719761Y-94785714D02*
X128767380Y-94928571D01*
X128767380Y-94928571D02*
X128767380Y-95166666D01*
X128767380Y-95166666D02*
X128719761Y-95261904D01*
X128719761Y-95261904D02*
X128672142Y-95309523D01*
X128672142Y-95309523D02*
X128576904Y-95357142D01*
X128576904Y-95357142D02*
X128481666Y-95357142D01*
X128481666Y-95357142D02*
X128386428Y-95309523D01*
X128386428Y-95309523D02*
X128338809Y-95261904D01*
X128338809Y-95261904D02*
X128291190Y-95166666D01*
X128291190Y-95166666D02*
X128243571Y-94976190D01*
X128243571Y-94976190D02*
X128195952Y-94880952D01*
X128195952Y-94880952D02*
X128148333Y-94833333D01*
X128148333Y-94833333D02*
X128053095Y-94785714D01*
X128053095Y-94785714D02*
X127957857Y-94785714D01*
X127957857Y-94785714D02*
X127862619Y-94833333D01*
X127862619Y-94833333D02*
X127815000Y-94880952D01*
X127815000Y-94880952D02*
X127767380Y-94976190D01*
X127767380Y-94976190D02*
X127767380Y-95214285D01*
X127767380Y-95214285D02*
X127815000Y-95357142D01*
X128767380Y-95785714D02*
X127767380Y-95785714D01*
X127767380Y-95785714D02*
X127767380Y-96166666D01*
X127767380Y-96166666D02*
X127815000Y-96261904D01*
X127815000Y-96261904D02*
X127862619Y-96309523D01*
X127862619Y-96309523D02*
X127957857Y-96357142D01*
X127957857Y-96357142D02*
X128100714Y-96357142D01*
X128100714Y-96357142D02*
X128195952Y-96309523D01*
X128195952Y-96309523D02*
X128243571Y-96261904D01*
X128243571Y-96261904D02*
X128291190Y-96166666D01*
X128291190Y-96166666D02*
X128291190Y-95785714D01*
X128719761Y-96738095D02*
X128767380Y-96880952D01*
X128767380Y-96880952D02*
X128767380Y-97119047D01*
X128767380Y-97119047D02*
X128719761Y-97214285D01*
X128719761Y-97214285D02*
X128672142Y-97261904D01*
X128672142Y-97261904D02*
X128576904Y-97309523D01*
X128576904Y-97309523D02*
X128481666Y-97309523D01*
X128481666Y-97309523D02*
X128386428Y-97261904D01*
X128386428Y-97261904D02*
X128338809Y-97214285D01*
X128338809Y-97214285D02*
X128291190Y-97119047D01*
X128291190Y-97119047D02*
X128243571Y-96928571D01*
X128243571Y-96928571D02*
X128195952Y-96833333D01*
X128195952Y-96833333D02*
X128148333Y-96785714D01*
X128148333Y-96785714D02*
X128053095Y-96738095D01*
X128053095Y-96738095D02*
X127957857Y-96738095D01*
X127957857Y-96738095D02*
X127862619Y-96785714D01*
X127862619Y-96785714D02*
X127815000Y-96833333D01*
X127815000Y-96833333D02*
X127767380Y-96928571D01*
X127767380Y-96928571D02*
X127767380Y-97166666D01*
X127767380Y-97166666D02*
X127815000Y-97309523D01*
X127767380Y-97595238D02*
X127767380Y-98166666D01*
X128767380Y-97880952D02*
X127767380Y-97880952D01*
D11*
X125859880Y-94333334D02*
X125883690Y-94404762D01*
X125883690Y-94404762D02*
X125883690Y-94523810D01*
X125883690Y-94523810D02*
X125859880Y-94571429D01*
X125859880Y-94571429D02*
X125836071Y-94595238D01*
X125836071Y-94595238D02*
X125788452Y-94619048D01*
X125788452Y-94619048D02*
X125740833Y-94619048D01*
X125740833Y-94619048D02*
X125693214Y-94595238D01*
X125693214Y-94595238D02*
X125669404Y-94571429D01*
X125669404Y-94571429D02*
X125645595Y-94523810D01*
X125645595Y-94523810D02*
X125621785Y-94428572D01*
X125621785Y-94428572D02*
X125597976Y-94380953D01*
X125597976Y-94380953D02*
X125574166Y-94357143D01*
X125574166Y-94357143D02*
X125526547Y-94333334D01*
X125526547Y-94333334D02*
X125478928Y-94333334D01*
X125478928Y-94333334D02*
X125431309Y-94357143D01*
X125431309Y-94357143D02*
X125407500Y-94380953D01*
X125407500Y-94380953D02*
X125383690Y-94428572D01*
X125383690Y-94428572D02*
X125383690Y-94547619D01*
X125383690Y-94547619D02*
X125407500Y-94619048D01*
X125383690Y-94785714D02*
X125883690Y-94904762D01*
X125883690Y-94904762D02*
X125526547Y-95000000D01*
X125526547Y-95000000D02*
X125883690Y-95095238D01*
X125883690Y-95095238D02*
X125383690Y-95214286D01*
X125431309Y-95380953D02*
X125407500Y-95404762D01*
X125407500Y-95404762D02*
X125383690Y-95452381D01*
X125383690Y-95452381D02*
X125383690Y-95571429D01*
X125383690Y-95571429D02*
X125407500Y-95619048D01*
X125407500Y-95619048D02*
X125431309Y-95642857D01*
X125431309Y-95642857D02*
X125478928Y-95666667D01*
X125478928Y-95666667D02*
X125526547Y-95666667D01*
X125526547Y-95666667D02*
X125597976Y-95642857D01*
X125597976Y-95642857D02*
X125883690Y-95357143D01*
X125883690Y-95357143D02*
X125883690Y-95666667D01*
D10*
%TO.C,SW1*%
X128719761Y-102128571D02*
X128767380Y-102271428D01*
X128767380Y-102271428D02*
X128767380Y-102509523D01*
X128767380Y-102509523D02*
X128719761Y-102604761D01*
X128719761Y-102604761D02*
X128672142Y-102652380D01*
X128672142Y-102652380D02*
X128576904Y-102699999D01*
X128576904Y-102699999D02*
X128481666Y-102699999D01*
X128481666Y-102699999D02*
X128386428Y-102652380D01*
X128386428Y-102652380D02*
X128338809Y-102604761D01*
X128338809Y-102604761D02*
X128291190Y-102509523D01*
X128291190Y-102509523D02*
X128243571Y-102319047D01*
X128243571Y-102319047D02*
X128195952Y-102223809D01*
X128195952Y-102223809D02*
X128148333Y-102176190D01*
X128148333Y-102176190D02*
X128053095Y-102128571D01*
X128053095Y-102128571D02*
X127957857Y-102128571D01*
X127957857Y-102128571D02*
X127862619Y-102176190D01*
X127862619Y-102176190D02*
X127815000Y-102223809D01*
X127815000Y-102223809D02*
X127767380Y-102319047D01*
X127767380Y-102319047D02*
X127767380Y-102557142D01*
X127767380Y-102557142D02*
X127815000Y-102699999D01*
X127767380Y-103033333D02*
X128767380Y-103271428D01*
X128767380Y-103271428D02*
X128053095Y-103461904D01*
X128053095Y-103461904D02*
X128767380Y-103652380D01*
X128767380Y-103652380D02*
X127767380Y-103890476D01*
X128862619Y-104033333D02*
X128862619Y-104795237D01*
X128719761Y-104985714D02*
X128767380Y-105128571D01*
X128767380Y-105128571D02*
X128767380Y-105366666D01*
X128767380Y-105366666D02*
X128719761Y-105461904D01*
X128719761Y-105461904D02*
X128672142Y-105509523D01*
X128672142Y-105509523D02*
X128576904Y-105557142D01*
X128576904Y-105557142D02*
X128481666Y-105557142D01*
X128481666Y-105557142D02*
X128386428Y-105509523D01*
X128386428Y-105509523D02*
X128338809Y-105461904D01*
X128338809Y-105461904D02*
X128291190Y-105366666D01*
X128291190Y-105366666D02*
X128243571Y-105176190D01*
X128243571Y-105176190D02*
X128195952Y-105080952D01*
X128195952Y-105080952D02*
X128148333Y-105033333D01*
X128148333Y-105033333D02*
X128053095Y-104985714D01*
X128053095Y-104985714D02*
X127957857Y-104985714D01*
X127957857Y-104985714D02*
X127862619Y-105033333D01*
X127862619Y-105033333D02*
X127815000Y-105080952D01*
X127815000Y-105080952D02*
X127767380Y-105176190D01*
X127767380Y-105176190D02*
X127767380Y-105414285D01*
X127767380Y-105414285D02*
X127815000Y-105557142D01*
X128767380Y-105985714D02*
X127767380Y-105985714D01*
X127767380Y-105985714D02*
X127767380Y-106366666D01*
X127767380Y-106366666D02*
X127815000Y-106461904D01*
X127815000Y-106461904D02*
X127862619Y-106509523D01*
X127862619Y-106509523D02*
X127957857Y-106557142D01*
X127957857Y-106557142D02*
X128100714Y-106557142D01*
X128100714Y-106557142D02*
X128195952Y-106509523D01*
X128195952Y-106509523D02*
X128243571Y-106461904D01*
X128243571Y-106461904D02*
X128291190Y-106366666D01*
X128291190Y-106366666D02*
X128291190Y-105985714D01*
X128719761Y-106938095D02*
X128767380Y-107080952D01*
X128767380Y-107080952D02*
X128767380Y-107319047D01*
X128767380Y-107319047D02*
X128719761Y-107414285D01*
X128719761Y-107414285D02*
X128672142Y-107461904D01*
X128672142Y-107461904D02*
X128576904Y-107509523D01*
X128576904Y-107509523D02*
X128481666Y-107509523D01*
X128481666Y-107509523D02*
X128386428Y-107461904D01*
X128386428Y-107461904D02*
X128338809Y-107414285D01*
X128338809Y-107414285D02*
X128291190Y-107319047D01*
X128291190Y-107319047D02*
X128243571Y-107128571D01*
X128243571Y-107128571D02*
X128195952Y-107033333D01*
X128195952Y-107033333D02*
X128148333Y-106985714D01*
X128148333Y-106985714D02*
X128053095Y-106938095D01*
X128053095Y-106938095D02*
X127957857Y-106938095D01*
X127957857Y-106938095D02*
X127862619Y-106985714D01*
X127862619Y-106985714D02*
X127815000Y-107033333D01*
X127815000Y-107033333D02*
X127767380Y-107128571D01*
X127767380Y-107128571D02*
X127767380Y-107366666D01*
X127767380Y-107366666D02*
X127815000Y-107509523D01*
X127767380Y-107795238D02*
X127767380Y-108366666D01*
X128767380Y-108080952D02*
X127767380Y-108080952D01*
D11*
X125859880Y-104533334D02*
X125883690Y-104604762D01*
X125883690Y-104604762D02*
X125883690Y-104723810D01*
X125883690Y-104723810D02*
X125859880Y-104771429D01*
X125859880Y-104771429D02*
X125836071Y-104795238D01*
X125836071Y-104795238D02*
X125788452Y-104819048D01*
X125788452Y-104819048D02*
X125740833Y-104819048D01*
X125740833Y-104819048D02*
X125693214Y-104795238D01*
X125693214Y-104795238D02*
X125669404Y-104771429D01*
X125669404Y-104771429D02*
X125645595Y-104723810D01*
X125645595Y-104723810D02*
X125621785Y-104628572D01*
X125621785Y-104628572D02*
X125597976Y-104580953D01*
X125597976Y-104580953D02*
X125574166Y-104557143D01*
X125574166Y-104557143D02*
X125526547Y-104533334D01*
X125526547Y-104533334D02*
X125478928Y-104533334D01*
X125478928Y-104533334D02*
X125431309Y-104557143D01*
X125431309Y-104557143D02*
X125407500Y-104580953D01*
X125407500Y-104580953D02*
X125383690Y-104628572D01*
X125383690Y-104628572D02*
X125383690Y-104747619D01*
X125383690Y-104747619D02*
X125407500Y-104819048D01*
X125383690Y-104985714D02*
X125883690Y-105104762D01*
X125883690Y-105104762D02*
X125526547Y-105200000D01*
X125526547Y-105200000D02*
X125883690Y-105295238D01*
X125883690Y-105295238D02*
X125383690Y-105414286D01*
X125883690Y-105866667D02*
X125883690Y-105580953D01*
X125883690Y-105723810D02*
X125383690Y-105723810D01*
X125383690Y-105723810D02*
X125455119Y-105676191D01*
X125455119Y-105676191D02*
X125502738Y-105628572D01*
X125502738Y-105628572D02*
X125526547Y-105580953D01*
D10*
%TO.C,U2*%
X153973571Y-96845714D02*
X153973571Y-97179047D01*
X154497380Y-97321904D02*
X154497380Y-96845714D01*
X154497380Y-96845714D02*
X153497380Y-96845714D01*
X153497380Y-96845714D02*
X153497380Y-97321904D01*
X154449761Y-97702857D02*
X154497380Y-97845714D01*
X154497380Y-97845714D02*
X154497380Y-98083809D01*
X154497380Y-98083809D02*
X154449761Y-98179047D01*
X154449761Y-98179047D02*
X154402142Y-98226666D01*
X154402142Y-98226666D02*
X154306904Y-98274285D01*
X154306904Y-98274285D02*
X154211666Y-98274285D01*
X154211666Y-98274285D02*
X154116428Y-98226666D01*
X154116428Y-98226666D02*
X154068809Y-98179047D01*
X154068809Y-98179047D02*
X154021190Y-98083809D01*
X154021190Y-98083809D02*
X153973571Y-97893333D01*
X153973571Y-97893333D02*
X153925952Y-97798095D01*
X153925952Y-97798095D02*
X153878333Y-97750476D01*
X153878333Y-97750476D02*
X153783095Y-97702857D01*
X153783095Y-97702857D02*
X153687857Y-97702857D01*
X153687857Y-97702857D02*
X153592619Y-97750476D01*
X153592619Y-97750476D02*
X153545000Y-97798095D01*
X153545000Y-97798095D02*
X153497380Y-97893333D01*
X153497380Y-97893333D02*
X153497380Y-98131428D01*
X153497380Y-98131428D02*
X153545000Y-98274285D01*
X154497380Y-98702857D02*
X153497380Y-98702857D01*
X153497380Y-98702857D02*
X153497380Y-99083809D01*
X153497380Y-99083809D02*
X153545000Y-99179047D01*
X153545000Y-99179047D02*
X153592619Y-99226666D01*
X153592619Y-99226666D02*
X153687857Y-99274285D01*
X153687857Y-99274285D02*
X153830714Y-99274285D01*
X153830714Y-99274285D02*
X153925952Y-99226666D01*
X153925952Y-99226666D02*
X153973571Y-99179047D01*
X153973571Y-99179047D02*
X154021190Y-99083809D01*
X154021190Y-99083809D02*
X154021190Y-98702857D01*
X154116428Y-99702857D02*
X154116428Y-100464762D01*
X154497380Y-101464761D02*
X154497380Y-100893333D01*
X154497380Y-101179047D02*
X153497380Y-101179047D01*
X153497380Y-101179047D02*
X153640238Y-101083809D01*
X153640238Y-101083809D02*
X153735476Y-100988571D01*
X153735476Y-100988571D02*
X153783095Y-100893333D01*
X153592619Y-101845714D02*
X153545000Y-101893333D01*
X153545000Y-101893333D02*
X153497380Y-101988571D01*
X153497380Y-101988571D02*
X153497380Y-102226666D01*
X153497380Y-102226666D02*
X153545000Y-102321904D01*
X153545000Y-102321904D02*
X153592619Y-102369523D01*
X153592619Y-102369523D02*
X153687857Y-102417142D01*
X153687857Y-102417142D02*
X153783095Y-102417142D01*
X153783095Y-102417142D02*
X153925952Y-102369523D01*
X153925952Y-102369523D02*
X154497380Y-101798095D01*
X154497380Y-101798095D02*
X154497380Y-102417142D01*
X153973571Y-102845714D02*
X153973571Y-103179047D01*
X154497380Y-103321904D02*
X154497380Y-102845714D01*
X154497380Y-102845714D02*
X153497380Y-102845714D01*
X153497380Y-102845714D02*
X153497380Y-103321904D01*
X141517380Y-98748095D02*
X142326904Y-98748095D01*
X142326904Y-98748095D02*
X142422142Y-98795714D01*
X142422142Y-98795714D02*
X142469761Y-98843333D01*
X142469761Y-98843333D02*
X142517380Y-98938571D01*
X142517380Y-98938571D02*
X142517380Y-99129047D01*
X142517380Y-99129047D02*
X142469761Y-99224285D01*
X142469761Y-99224285D02*
X142422142Y-99271904D01*
X142422142Y-99271904D02*
X142326904Y-99319523D01*
X142326904Y-99319523D02*
X141517380Y-99319523D01*
X141612619Y-99748095D02*
X141565000Y-99795714D01*
X141565000Y-99795714D02*
X141517380Y-99890952D01*
X141517380Y-99890952D02*
X141517380Y-100129047D01*
X141517380Y-100129047D02*
X141565000Y-100224285D01*
X141565000Y-100224285D02*
X141612619Y-100271904D01*
X141612619Y-100271904D02*
X141707857Y-100319523D01*
X141707857Y-100319523D02*
X141803095Y-100319523D01*
X141803095Y-100319523D02*
X141945952Y-100271904D01*
X141945952Y-100271904D02*
X142517380Y-99700476D01*
X142517380Y-99700476D02*
X142517380Y-100319523D01*
D12*
%TO.C,SW2*%
X126300000Y-94000000D02*
X125100000Y-94000000D01*
X125100000Y-94000000D02*
X125100000Y-96000000D01*
X126300000Y-96000000D02*
X126300000Y-94000000D01*
X125100000Y-96000000D02*
X126300000Y-96000000D01*
%TO.C,SW1*%
X126300000Y-104200000D02*
X125100000Y-104200000D01*
X125100000Y-104200000D02*
X125100000Y-106200000D01*
X126300000Y-106200000D02*
X126300000Y-104200000D01*
X125100000Y-106200000D02*
X126300000Y-106200000D01*
D13*
%TO.C,U2*%
X129350000Y-108000000D02*
X144350000Y-108000000D01*
X144350000Y-108000000D02*
X144850000Y-107500000D01*
X145350000Y-108000000D02*
X153350000Y-108000000D01*
X153350000Y-108000000D02*
X153350000Y-92000000D01*
X144850000Y-107500000D02*
X145350000Y-108000000D01*
X129350000Y-92000000D02*
X129350000Y-108000000D01*
X153350000Y-92000000D02*
X129350000Y-92000000D01*
%TD*%
M02*
