M48
; DRILL file {KiCad (7.0.0)} date Fri 17 Feb 2023 11:27:06 PM PST
; FORMAT={-:-/ absolute / inch / decimal}
; #@! TF.CreationDate,2023-02-17T23:27:06-08:00
; #@! TF.GenerationSoftware,Kicad,Pcbnew,(7.0.0)
; #@! TF.FileFunction,Plated,1,2,PTH
FMAT,2
INCH
; #@! TA.AperFunction,Plated,PTH,ViaDrill
T1C0.0118
%
G90
G05
T1
X5.03Y-4.011
X5.0437Y-4.1881
X5.0437Y-4.2201
X5.0437Y-4.2503
X5.0437Y-4.2823
X5.0697Y-4.1881
X5.0697Y-4.2201
X5.0697Y-4.2503
X5.0697Y-4.2823
X5.0949Y-4.2503
X5.0949Y-4.2823
X5.098Y-3.642
X5.098Y-3.674
X5.1654Y-4.1535
X5.168Y-3.548
X5.1969Y-4.1535
X5.2283Y-4.1535
X5.262Y-4.1
X5.2677Y-4.2205
X5.27Y-3.81
X5.2717Y-3.6378
X5.347Y-3.68
X5.4961Y-3.9961
X5.4961Y-4.1496
X5.498Y-3.919
X5.546Y-4.168
X5.5866Y-3.6378
X5.5866Y-3.7717
X5.658Y-4.15
X5.6614Y-3.6378
X5.738Y-4.252
X5.7874Y-3.5354
X5.7874Y-3.5748
X5.7874Y-3.6142
X5.7874Y-3.6535
X5.7874Y-3.6929
X5.8208Y-4.1791
X5.8208Y-4.2067
X5.8208Y-4.2346
X5.8228Y-3.5354
X5.8228Y-3.5748
X5.8228Y-3.6142
X5.8228Y-3.6535
X5.8228Y-3.6929
X5.8488Y-4.1791
X5.8488Y-4.2067
X5.8488Y-4.2346
X5.8543Y-3.5354
X5.8543Y-3.5748
X5.8543Y-3.6142
X5.8543Y-3.6535
X5.8543Y-3.6929
X5.8819Y-4.0157
X5.8854Y-4.1461
X5.9134Y-4.1461
T0
M30
