%TF.GenerationSoftware,KiCad,Pcbnew,(7.0.0)*%
%TF.CreationDate,2023-02-17T23:27:10-08:00*%
%TF.ProjectId,seatalk_wifi,73656174-616c-46b5-9f77-6966692e6b69,rev?*%
%TF.SameCoordinates,Original*%
%TF.FileFunction,Drillmap*%
%TF.FilePolarity,Positive*%
%FSLAX45Y45*%
G04 Gerber Fmt 4.5, Leading zero omitted, Abs format (unit mm)*
G04 Created by KiCad (PCBNEW (7.0.0)) date 2023-02-17 23:27:10*
%MOMM*%
%LPD*%
G01*
G04 APERTURE LIST*
%ADD10C,0.050000*%
%ADD11C,0.200000*%
G04 APERTURE END LIST*
D10*
X12300000Y-11100000D02*
X12300000Y-8900000D01*
X15400000Y-11100000D02*
X12300000Y-11100000D01*
X15400000Y-8900000D02*
X15400000Y-11100000D01*
X12300000Y-8900000D02*
X15400000Y-8900000D01*
D11*
X12545119Y-11395976D02*
X12545119Y-11195976D01*
X12545119Y-11195976D02*
X12592738Y-11195976D01*
X12592738Y-11195976D02*
X12621309Y-11205500D01*
X12621309Y-11205500D02*
X12640357Y-11224548D01*
X12640357Y-11224548D02*
X12649881Y-11243595D01*
X12649881Y-11243595D02*
X12659405Y-11281690D01*
X12659405Y-11281690D02*
X12659405Y-11310262D01*
X12659405Y-11310262D02*
X12649881Y-11348357D01*
X12649881Y-11348357D02*
X12640357Y-11367405D01*
X12640357Y-11367405D02*
X12621309Y-11386452D01*
X12621309Y-11386452D02*
X12592738Y-11395976D01*
X12592738Y-11395976D02*
X12545119Y-11395976D01*
X12745119Y-11395976D02*
X12745119Y-11262643D01*
X12745119Y-11300738D02*
X12754643Y-11281690D01*
X12754643Y-11281690D02*
X12764167Y-11272167D01*
X12764167Y-11272167D02*
X12783214Y-11262643D01*
X12783214Y-11262643D02*
X12802262Y-11262643D01*
X12868928Y-11395976D02*
X12868928Y-11262643D01*
X12868928Y-11195976D02*
X12859405Y-11205500D01*
X12859405Y-11205500D02*
X12868928Y-11215024D01*
X12868928Y-11215024D02*
X12878452Y-11205500D01*
X12878452Y-11205500D02*
X12868928Y-11195976D01*
X12868928Y-11195976D02*
X12868928Y-11215024D01*
X12992738Y-11395976D02*
X12973690Y-11386452D01*
X12973690Y-11386452D02*
X12964167Y-11367405D01*
X12964167Y-11367405D02*
X12964167Y-11195976D01*
X13097500Y-11395976D02*
X13078452Y-11386452D01*
X13078452Y-11386452D02*
X13068928Y-11367405D01*
X13068928Y-11367405D02*
X13068928Y-11195976D01*
X13293690Y-11395976D02*
X13293690Y-11195976D01*
X13293690Y-11195976D02*
X13360357Y-11338833D01*
X13360357Y-11338833D02*
X13427024Y-11195976D01*
X13427024Y-11195976D02*
X13427024Y-11395976D01*
X13607976Y-11395976D02*
X13607976Y-11291214D01*
X13607976Y-11291214D02*
X13598452Y-11272167D01*
X13598452Y-11272167D02*
X13579405Y-11262643D01*
X13579405Y-11262643D02*
X13541309Y-11262643D01*
X13541309Y-11262643D02*
X13522262Y-11272167D01*
X13607976Y-11386452D02*
X13588928Y-11395976D01*
X13588928Y-11395976D02*
X13541309Y-11395976D01*
X13541309Y-11395976D02*
X13522262Y-11386452D01*
X13522262Y-11386452D02*
X13512738Y-11367405D01*
X13512738Y-11367405D02*
X13512738Y-11348357D01*
X13512738Y-11348357D02*
X13522262Y-11329309D01*
X13522262Y-11329309D02*
X13541309Y-11319786D01*
X13541309Y-11319786D02*
X13588928Y-11319786D01*
X13588928Y-11319786D02*
X13607976Y-11310262D01*
X13703214Y-11262643D02*
X13703214Y-11462643D01*
X13703214Y-11272167D02*
X13722262Y-11262643D01*
X13722262Y-11262643D02*
X13760357Y-11262643D01*
X13760357Y-11262643D02*
X13779405Y-11272167D01*
X13779405Y-11272167D02*
X13788928Y-11281690D01*
X13788928Y-11281690D02*
X13798452Y-11300738D01*
X13798452Y-11300738D02*
X13798452Y-11357881D01*
X13798452Y-11357881D02*
X13788928Y-11376928D01*
X13788928Y-11376928D02*
X13779405Y-11386452D01*
X13779405Y-11386452D02*
X13760357Y-11395976D01*
X13760357Y-11395976D02*
X13722262Y-11395976D01*
X13722262Y-11395976D02*
X13703214Y-11386452D01*
X13884167Y-11376928D02*
X13893690Y-11386452D01*
X13893690Y-11386452D02*
X13884167Y-11395976D01*
X13884167Y-11395976D02*
X13874643Y-11386452D01*
X13874643Y-11386452D02*
X13884167Y-11376928D01*
X13884167Y-11376928D02*
X13884167Y-11395976D01*
X13884167Y-11272167D02*
X13893690Y-11281690D01*
X13893690Y-11281690D02*
X13884167Y-11291214D01*
X13884167Y-11291214D02*
X13874643Y-11281690D01*
X13874643Y-11281690D02*
X13884167Y-11272167D01*
X13884167Y-11272167D02*
X13884167Y-11291214D01*
M02*
