%TF.GenerationSoftware,KiCad,Pcbnew,(6.99.0-2635-gfc1afa6298)*%
%TF.CreationDate,2022-08-16T08:58:36-07:00*%
%TF.ProjectId,seatalk_wifi,73656174-616c-46b5-9f77-6966692e6b69,rev?*%
%TF.SameCoordinates,Original*%
%TF.FileFunction,Legend,Top*%
%TF.FilePolarity,Positive*%
%FSLAX46Y46*%
G04 Gerber Fmt 4.6, Leading zero omitted, Abs format (unit mm)*
G04 Created by KiCad (PCBNEW (6.99.0-2635-gfc1afa6298)) date 2022-08-16 08:58:36*
%MOMM*%
%LPD*%
G01*
G04 APERTURE LIST*
%ADD10C,0.120000*%
%ADD11C,0.150000*%
%ADD12C,0.250000*%
%ADD13C,0.200000*%
G04 APERTURE END LIST*
D10*
X123200000Y-110750000D02*
X123200000Y-89250000D01*
X153750000Y-110750000D02*
X123200000Y-110750000D01*
X153750000Y-89250000D02*
X153750000Y-110750000D01*
X123200000Y-89250000D02*
X153750000Y-89250000D01*
D11*
X125235619Y-107407152D02*
X125235619Y-106835724D01*
X125235619Y-107121438D02*
X126235619Y-107121438D01*
X126235619Y-107121438D02*
X126092761Y-107026200D01*
X126092761Y-107026200D02*
X125997523Y-106930962D01*
X125997523Y-106930962D02*
X125949904Y-106835724D01*
X126140380Y-107788105D02*
X126188000Y-107835724D01*
X126188000Y-107835724D02*
X126235619Y-107930962D01*
X126235619Y-107930962D02*
X126235619Y-108169057D01*
X126235619Y-108169057D02*
X126188000Y-108264295D01*
X126188000Y-108264295D02*
X126140380Y-108311914D01*
X126140380Y-108311914D02*
X126045142Y-108359533D01*
X126045142Y-108359533D02*
X125949904Y-108359533D01*
X125949904Y-108359533D02*
X125807047Y-108311914D01*
X125807047Y-108311914D02*
X125235619Y-107740486D01*
X125235619Y-107740486D02*
X125235619Y-108359533D01*
X126235619Y-108645248D02*
X125235619Y-108978581D01*
X125235619Y-108978581D02*
X126235619Y-109311914D01*
X147915000Y-92061904D02*
X147867380Y-92157142D01*
X147867380Y-92157142D02*
X147867380Y-92299999D01*
X147867380Y-92299999D02*
X147915000Y-92442856D01*
X147915000Y-92442856D02*
X148010238Y-92538094D01*
X148010238Y-92538094D02*
X148105476Y-92585713D01*
X148105476Y-92585713D02*
X148295952Y-92633332D01*
X148295952Y-92633332D02*
X148438809Y-92633332D01*
X148438809Y-92633332D02*
X148629285Y-92585713D01*
X148629285Y-92585713D02*
X148724523Y-92538094D01*
X148724523Y-92538094D02*
X148819761Y-92442856D01*
X148819761Y-92442856D02*
X148867380Y-92299999D01*
X148867380Y-92299999D02*
X148867380Y-92204761D01*
X148867380Y-92204761D02*
X148819761Y-92061904D01*
X148819761Y-92061904D02*
X148772142Y-92014285D01*
X148772142Y-92014285D02*
X148438809Y-92014285D01*
X148438809Y-92014285D02*
X148438809Y-92204761D01*
X148867380Y-91585713D02*
X147867380Y-91585713D01*
X147867380Y-91585713D02*
X148867380Y-91014285D01*
X148867380Y-91014285D02*
X147867380Y-91014285D01*
X148867380Y-90538094D02*
X147867380Y-90538094D01*
X147867380Y-90538094D02*
X147867380Y-90299999D01*
X147867380Y-90299999D02*
X147915000Y-90157142D01*
X147915000Y-90157142D02*
X148010238Y-90061904D01*
X148010238Y-90061904D02*
X148105476Y-90014285D01*
X148105476Y-90014285D02*
X148295952Y-89966666D01*
X148295952Y-89966666D02*
X148438809Y-89966666D01*
X148438809Y-89966666D02*
X148629285Y-90014285D01*
X148629285Y-90014285D02*
X148724523Y-90061904D01*
X148724523Y-90061904D02*
X148819761Y-90157142D01*
X148819761Y-90157142D02*
X148867380Y-90299999D01*
X148867380Y-90299999D02*
X148867380Y-90538094D01*
D12*
X143424286Y-92497380D02*
X143995714Y-92497380D01*
X143710000Y-93497380D02*
X143710000Y-92497380D01*
D11*
X126213400Y-90855895D02*
X126261019Y-90760657D01*
X126261019Y-90760657D02*
X126261019Y-90617800D01*
X126261019Y-90617800D02*
X126213400Y-90474943D01*
X126213400Y-90474943D02*
X126118161Y-90379705D01*
X126118161Y-90379705D02*
X126022923Y-90332086D01*
X126022923Y-90332086D02*
X125832447Y-90284467D01*
X125832447Y-90284467D02*
X125689590Y-90284467D01*
X125689590Y-90284467D02*
X125499114Y-90332086D01*
X125499114Y-90332086D02*
X125403876Y-90379705D01*
X125403876Y-90379705D02*
X125308638Y-90474943D01*
X125308638Y-90474943D02*
X125261019Y-90617800D01*
X125261019Y-90617800D02*
X125261019Y-90713038D01*
X125261019Y-90713038D02*
X125308638Y-90855895D01*
X125308638Y-90855895D02*
X125356257Y-90903514D01*
X125356257Y-90903514D02*
X125689590Y-90903514D01*
X125689590Y-90903514D02*
X125689590Y-90713038D01*
X125261019Y-91332086D02*
X126261019Y-91332086D01*
X126261019Y-91332086D02*
X125261019Y-91903514D01*
X125261019Y-91903514D02*
X126261019Y-91903514D01*
X125261019Y-92379705D02*
X126261019Y-92379705D01*
X126261019Y-92379705D02*
X126261019Y-92617800D01*
X126261019Y-92617800D02*
X126213400Y-92760657D01*
X126213400Y-92760657D02*
X126118161Y-92855895D01*
X126118161Y-92855895D02*
X126022923Y-92903514D01*
X126022923Y-92903514D02*
X125832447Y-92951133D01*
X125832447Y-92951133D02*
X125689590Y-92951133D01*
X125689590Y-92951133D02*
X125499114Y-92903514D01*
X125499114Y-92903514D02*
X125403876Y-92855895D01*
X125403876Y-92855895D02*
X125308638Y-92760657D01*
X125308638Y-92760657D02*
X125261019Y-92617800D01*
X125261019Y-92617800D02*
X125261019Y-92379705D01*
D12*
X140920723Y-93497380D02*
X140587390Y-93021190D01*
X140349295Y-93497380D02*
X140349295Y-92497380D01*
X140349295Y-92497380D02*
X140730247Y-92497380D01*
X140730247Y-92497380D02*
X140825485Y-92545000D01*
X140825485Y-92545000D02*
X140873104Y-92592619D01*
X140873104Y-92592619D02*
X140920723Y-92687857D01*
X140920723Y-92687857D02*
X140920723Y-92830714D01*
X140920723Y-92830714D02*
X140873104Y-92925952D01*
X140873104Y-92925952D02*
X140825485Y-92973571D01*
X140825485Y-92973571D02*
X140730247Y-93021190D01*
X140730247Y-93021190D02*
X140349295Y-93021190D01*
D11*
X148652628Y-110397704D02*
X148652628Y-109635800D01*
X149033580Y-110016752D02*
X148271676Y-110016752D01*
X149033580Y-108635800D02*
X149033580Y-109207228D01*
X149033580Y-108921514D02*
X148033580Y-108921514D01*
X148033580Y-108921514D02*
X148176438Y-109016752D01*
X148176438Y-109016752D02*
X148271676Y-109111990D01*
X148271676Y-109111990D02*
X148319295Y-109207228D01*
X148128819Y-108254847D02*
X148081200Y-108207228D01*
X148081200Y-108207228D02*
X148033580Y-108111990D01*
X148033580Y-108111990D02*
X148033580Y-107873895D01*
X148033580Y-107873895D02*
X148081200Y-107778657D01*
X148081200Y-107778657D02*
X148128819Y-107731038D01*
X148128819Y-107731038D02*
X148224057Y-107683419D01*
X148224057Y-107683419D02*
X148319295Y-107683419D01*
X148319295Y-107683419D02*
X148462152Y-107731038D01*
X148462152Y-107731038D02*
X149033580Y-108302466D01*
X149033580Y-108302466D02*
X149033580Y-107683419D01*
X148033580Y-107397704D02*
X149033580Y-107064371D01*
X149033580Y-107064371D02*
X148033580Y-106731038D01*
D10*
%TO.C,R4*%
X145466667Y-94293904D02*
X145200000Y-93912952D01*
X145009524Y-94293904D02*
X145009524Y-93493904D01*
X145009524Y-93493904D02*
X145314286Y-93493904D01*
X145314286Y-93493904D02*
X145390476Y-93532000D01*
X145390476Y-93532000D02*
X145428571Y-93570095D01*
X145428571Y-93570095D02*
X145466667Y-93646285D01*
X145466667Y-93646285D02*
X145466667Y-93760571D01*
X145466667Y-93760571D02*
X145428571Y-93836761D01*
X145428571Y-93836761D02*
X145390476Y-93874857D01*
X145390476Y-93874857D02*
X145314286Y-93912952D01*
X145314286Y-93912952D02*
X145009524Y-93912952D01*
X146152381Y-93760571D02*
X146152381Y-94293904D01*
X145961905Y-93455809D02*
X145771428Y-94027238D01*
X145771428Y-94027238D02*
X146266667Y-94027238D01*
D11*
%TO.C,D1*%
X133961905Y-106284580D02*
X133961905Y-105284580D01*
X133961905Y-105284580D02*
X134200000Y-105284580D01*
X134200000Y-105284580D02*
X134342857Y-105332200D01*
X134342857Y-105332200D02*
X134438095Y-105427438D01*
X134438095Y-105427438D02*
X134485714Y-105522676D01*
X134485714Y-105522676D02*
X134533333Y-105713152D01*
X134533333Y-105713152D02*
X134533333Y-105856009D01*
X134533333Y-105856009D02*
X134485714Y-106046485D01*
X134485714Y-106046485D02*
X134438095Y-106141723D01*
X134438095Y-106141723D02*
X134342857Y-106236961D01*
X134342857Y-106236961D02*
X134200000Y-106284580D01*
X134200000Y-106284580D02*
X133961905Y-106284580D01*
X135485714Y-106284580D02*
X134914286Y-106284580D01*
X135200000Y-106284580D02*
X135200000Y-105284580D01*
X135200000Y-105284580D02*
X135104762Y-105427438D01*
X135104762Y-105427438D02*
X135009524Y-105522676D01*
X135009524Y-105522676D02*
X134914286Y-105570295D01*
D10*
%TO.C,R10*%
X145485714Y-95293904D02*
X145219047Y-94912952D01*
X145028571Y-95293904D02*
X145028571Y-94493904D01*
X145028571Y-94493904D02*
X145333333Y-94493904D01*
X145333333Y-94493904D02*
X145409523Y-94532000D01*
X145409523Y-94532000D02*
X145447618Y-94570095D01*
X145447618Y-94570095D02*
X145485714Y-94646285D01*
X145485714Y-94646285D02*
X145485714Y-94760571D01*
X145485714Y-94760571D02*
X145447618Y-94836761D01*
X145447618Y-94836761D02*
X145409523Y-94874857D01*
X145409523Y-94874857D02*
X145333333Y-94912952D01*
X145333333Y-94912952D02*
X145028571Y-94912952D01*
X146247618Y-95293904D02*
X145790475Y-95293904D01*
X146019047Y-95293904D02*
X146019047Y-94493904D01*
X146019047Y-94493904D02*
X145942856Y-94608190D01*
X145942856Y-94608190D02*
X145866666Y-94684380D01*
X145866666Y-94684380D02*
X145790475Y-94722476D01*
X146742857Y-94493904D02*
X146819047Y-94493904D01*
X146819047Y-94493904D02*
X146895238Y-94532000D01*
X146895238Y-94532000D02*
X146933333Y-94570095D01*
X146933333Y-94570095D02*
X146971428Y-94646285D01*
X146971428Y-94646285D02*
X147009523Y-94798666D01*
X147009523Y-94798666D02*
X147009523Y-94989142D01*
X147009523Y-94989142D02*
X146971428Y-95141523D01*
X146971428Y-95141523D02*
X146933333Y-95217714D01*
X146933333Y-95217714D02*
X146895238Y-95255809D01*
X146895238Y-95255809D02*
X146819047Y-95293904D01*
X146819047Y-95293904D02*
X146742857Y-95293904D01*
X146742857Y-95293904D02*
X146666666Y-95255809D01*
X146666666Y-95255809D02*
X146628571Y-95217714D01*
X146628571Y-95217714D02*
X146590476Y-95141523D01*
X146590476Y-95141523D02*
X146552380Y-94989142D01*
X146552380Y-94989142D02*
X146552380Y-94798666D01*
X146552380Y-94798666D02*
X146590476Y-94646285D01*
X146590476Y-94646285D02*
X146628571Y-94570095D01*
X146628571Y-94570095D02*
X146666666Y-94532000D01*
X146666666Y-94532000D02*
X146742857Y-94493904D01*
%TO.C,C7*%
X149717714Y-93933332D02*
X149755809Y-93971428D01*
X149755809Y-93971428D02*
X149793904Y-94085713D01*
X149793904Y-94085713D02*
X149793904Y-94161904D01*
X149793904Y-94161904D02*
X149755809Y-94276190D01*
X149755809Y-94276190D02*
X149679619Y-94352380D01*
X149679619Y-94352380D02*
X149603428Y-94390475D01*
X149603428Y-94390475D02*
X149451047Y-94428571D01*
X149451047Y-94428571D02*
X149336761Y-94428571D01*
X149336761Y-94428571D02*
X149184380Y-94390475D01*
X149184380Y-94390475D02*
X149108190Y-94352380D01*
X149108190Y-94352380D02*
X149032000Y-94276190D01*
X149032000Y-94276190D02*
X148993904Y-94161904D01*
X148993904Y-94161904D02*
X148993904Y-94085713D01*
X148993904Y-94085713D02*
X149032000Y-93971428D01*
X149032000Y-93971428D02*
X149070095Y-93933332D01*
X148993904Y-93666666D02*
X148993904Y-93133332D01*
X148993904Y-93133332D02*
X149793904Y-93476190D01*
D11*
%TO.C,L1*%
X146275533Y-106960680D02*
X145799343Y-106960680D01*
X145799343Y-106960680D02*
X145799343Y-105960680D01*
X147132676Y-106960680D02*
X146561248Y-106960680D01*
X146846962Y-106960680D02*
X146846962Y-105960680D01*
X146846962Y-105960680D02*
X146751724Y-106103538D01*
X146751724Y-106103538D02*
X146656486Y-106198776D01*
X146656486Y-106198776D02*
X146561248Y-106246395D01*
%TO.C,C9*%
X132319733Y-103904142D02*
X132272114Y-103951761D01*
X132272114Y-103951761D02*
X132129257Y-103999380D01*
X132129257Y-103999380D02*
X132034019Y-103999380D01*
X132034019Y-103999380D02*
X131891162Y-103951761D01*
X131891162Y-103951761D02*
X131795924Y-103856523D01*
X131795924Y-103856523D02*
X131748305Y-103761285D01*
X131748305Y-103761285D02*
X131700686Y-103570809D01*
X131700686Y-103570809D02*
X131700686Y-103427952D01*
X131700686Y-103427952D02*
X131748305Y-103237476D01*
X131748305Y-103237476D02*
X131795924Y-103142238D01*
X131795924Y-103142238D02*
X131891162Y-103047000D01*
X131891162Y-103047000D02*
X132034019Y-102999380D01*
X132034019Y-102999380D02*
X132129257Y-102999380D01*
X132129257Y-102999380D02*
X132272114Y-103047000D01*
X132272114Y-103047000D02*
X132319733Y-103094619D01*
X132795924Y-103999380D02*
X132986400Y-103999380D01*
X132986400Y-103999380D02*
X133081638Y-103951761D01*
X133081638Y-103951761D02*
X133129257Y-103904142D01*
X133129257Y-103904142D02*
X133224495Y-103761285D01*
X133224495Y-103761285D02*
X133272114Y-103570809D01*
X133272114Y-103570809D02*
X133272114Y-103189857D01*
X133272114Y-103189857D02*
X133224495Y-103094619D01*
X133224495Y-103094619D02*
X133176876Y-103047000D01*
X133176876Y-103047000D02*
X133081638Y-102999380D01*
X133081638Y-102999380D02*
X132891162Y-102999380D01*
X132891162Y-102999380D02*
X132795924Y-103047000D01*
X132795924Y-103047000D02*
X132748305Y-103094619D01*
X132748305Y-103094619D02*
X132700686Y-103189857D01*
X132700686Y-103189857D02*
X132700686Y-103427952D01*
X132700686Y-103427952D02*
X132748305Y-103523190D01*
X132748305Y-103523190D02*
X132795924Y-103570809D01*
X132795924Y-103570809D02*
X132891162Y-103618428D01*
X132891162Y-103618428D02*
X133081638Y-103618428D01*
X133081638Y-103618428D02*
X133176876Y-103570809D01*
X133176876Y-103570809D02*
X133224495Y-103523190D01*
X133224495Y-103523190D02*
X133272114Y-103427952D01*
%TO.C,Q1*%
X129004761Y-94032619D02*
X128909523Y-93985000D01*
X128909523Y-93985000D02*
X128814285Y-93889761D01*
X128814285Y-93889761D02*
X128671428Y-93746904D01*
X128671428Y-93746904D02*
X128576190Y-93699285D01*
X128576190Y-93699285D02*
X128480952Y-93699285D01*
X128528571Y-93937380D02*
X128433333Y-93889761D01*
X128433333Y-93889761D02*
X128338095Y-93794523D01*
X128338095Y-93794523D02*
X128290476Y-93604047D01*
X128290476Y-93604047D02*
X128290476Y-93270714D01*
X128290476Y-93270714D02*
X128338095Y-93080238D01*
X128338095Y-93080238D02*
X128433333Y-92985000D01*
X128433333Y-92985000D02*
X128528571Y-92937380D01*
X128528571Y-92937380D02*
X128719047Y-92937380D01*
X128719047Y-92937380D02*
X128814285Y-92985000D01*
X128814285Y-92985000D02*
X128909523Y-93080238D01*
X128909523Y-93080238D02*
X128957142Y-93270714D01*
X128957142Y-93270714D02*
X128957142Y-93604047D01*
X128957142Y-93604047D02*
X128909523Y-93794523D01*
X128909523Y-93794523D02*
X128814285Y-93889761D01*
X128814285Y-93889761D02*
X128719047Y-93937380D01*
X128719047Y-93937380D02*
X128528571Y-93937380D01*
X129909523Y-93937380D02*
X129338095Y-93937380D01*
X129623809Y-93937380D02*
X129623809Y-92937380D01*
X129623809Y-92937380D02*
X129528571Y-93080238D01*
X129528571Y-93080238D02*
X129433333Y-93175476D01*
X129433333Y-93175476D02*
X129338095Y-93223095D01*
%TO.C,R2*%
X136433333Y-106267380D02*
X136100000Y-105791190D01*
X135861905Y-106267380D02*
X135861905Y-105267380D01*
X135861905Y-105267380D02*
X136242857Y-105267380D01*
X136242857Y-105267380D02*
X136338095Y-105315000D01*
X136338095Y-105315000D02*
X136385714Y-105362619D01*
X136385714Y-105362619D02*
X136433333Y-105457857D01*
X136433333Y-105457857D02*
X136433333Y-105600714D01*
X136433333Y-105600714D02*
X136385714Y-105695952D01*
X136385714Y-105695952D02*
X136338095Y-105743571D01*
X136338095Y-105743571D02*
X136242857Y-105791190D01*
X136242857Y-105791190D02*
X135861905Y-105791190D01*
X136814286Y-105362619D02*
X136861905Y-105315000D01*
X136861905Y-105315000D02*
X136957143Y-105267380D01*
X136957143Y-105267380D02*
X137195238Y-105267380D01*
X137195238Y-105267380D02*
X137290476Y-105315000D01*
X137290476Y-105315000D02*
X137338095Y-105362619D01*
X137338095Y-105362619D02*
X137385714Y-105457857D01*
X137385714Y-105457857D02*
X137385714Y-105553095D01*
X137385714Y-105553095D02*
X137338095Y-105695952D01*
X137338095Y-105695952D02*
X136766667Y-106267380D01*
X136766667Y-106267380D02*
X137385714Y-106267380D01*
%TO.C,C1*%
X143683333Y-109722142D02*
X143635714Y-109769761D01*
X143635714Y-109769761D02*
X143492857Y-109817380D01*
X143492857Y-109817380D02*
X143397619Y-109817380D01*
X143397619Y-109817380D02*
X143254762Y-109769761D01*
X143254762Y-109769761D02*
X143159524Y-109674523D01*
X143159524Y-109674523D02*
X143111905Y-109579285D01*
X143111905Y-109579285D02*
X143064286Y-109388809D01*
X143064286Y-109388809D02*
X143064286Y-109245952D01*
X143064286Y-109245952D02*
X143111905Y-109055476D01*
X143111905Y-109055476D02*
X143159524Y-108960238D01*
X143159524Y-108960238D02*
X143254762Y-108865000D01*
X143254762Y-108865000D02*
X143397619Y-108817380D01*
X143397619Y-108817380D02*
X143492857Y-108817380D01*
X143492857Y-108817380D02*
X143635714Y-108865000D01*
X143635714Y-108865000D02*
X143683333Y-108912619D01*
X144635714Y-109817380D02*
X144064286Y-109817380D01*
X144350000Y-109817380D02*
X144350000Y-108817380D01*
X144350000Y-108817380D02*
X144254762Y-108960238D01*
X144254762Y-108960238D02*
X144159524Y-109055476D01*
X144159524Y-109055476D02*
X144064286Y-109103095D01*
%TO.C,U3*%
X140335095Y-103532780D02*
X140335095Y-104342304D01*
X140335095Y-104342304D02*
X140382714Y-104437542D01*
X140382714Y-104437542D02*
X140430333Y-104485161D01*
X140430333Y-104485161D02*
X140525571Y-104532780D01*
X140525571Y-104532780D02*
X140716047Y-104532780D01*
X140716047Y-104532780D02*
X140811285Y-104485161D01*
X140811285Y-104485161D02*
X140858904Y-104437542D01*
X140858904Y-104437542D02*
X140906523Y-104342304D01*
X140906523Y-104342304D02*
X140906523Y-103532780D01*
X141287476Y-103532780D02*
X141906523Y-103532780D01*
X141906523Y-103532780D02*
X141573190Y-103913733D01*
X141573190Y-103913733D02*
X141716047Y-103913733D01*
X141716047Y-103913733D02*
X141811285Y-103961352D01*
X141811285Y-103961352D02*
X141858904Y-104008971D01*
X141858904Y-104008971D02*
X141906523Y-104104209D01*
X141906523Y-104104209D02*
X141906523Y-104342304D01*
X141906523Y-104342304D02*
X141858904Y-104437542D01*
X141858904Y-104437542D02*
X141811285Y-104485161D01*
X141811285Y-104485161D02*
X141716047Y-104532780D01*
X141716047Y-104532780D02*
X141430333Y-104532780D01*
X141430333Y-104532780D02*
X141335095Y-104485161D01*
X141335095Y-104485161D02*
X141287476Y-104437542D01*
%TO.C,C5*%
X146243333Y-109492142D02*
X146195714Y-109539761D01*
X146195714Y-109539761D02*
X146052857Y-109587380D01*
X146052857Y-109587380D02*
X145957619Y-109587380D01*
X145957619Y-109587380D02*
X145814762Y-109539761D01*
X145814762Y-109539761D02*
X145719524Y-109444523D01*
X145719524Y-109444523D02*
X145671905Y-109349285D01*
X145671905Y-109349285D02*
X145624286Y-109158809D01*
X145624286Y-109158809D02*
X145624286Y-109015952D01*
X145624286Y-109015952D02*
X145671905Y-108825476D01*
X145671905Y-108825476D02*
X145719524Y-108730238D01*
X145719524Y-108730238D02*
X145814762Y-108635000D01*
X145814762Y-108635000D02*
X145957619Y-108587380D01*
X145957619Y-108587380D02*
X146052857Y-108587380D01*
X146052857Y-108587380D02*
X146195714Y-108635000D01*
X146195714Y-108635000D02*
X146243333Y-108682619D01*
X147148095Y-108587380D02*
X146671905Y-108587380D01*
X146671905Y-108587380D02*
X146624286Y-109063571D01*
X146624286Y-109063571D02*
X146671905Y-109015952D01*
X146671905Y-109015952D02*
X146767143Y-108968333D01*
X146767143Y-108968333D02*
X147005238Y-108968333D01*
X147005238Y-108968333D02*
X147100476Y-109015952D01*
X147100476Y-109015952D02*
X147148095Y-109063571D01*
X147148095Y-109063571D02*
X147195714Y-109158809D01*
X147195714Y-109158809D02*
X147195714Y-109396904D01*
X147195714Y-109396904D02*
X147148095Y-109492142D01*
X147148095Y-109492142D02*
X147100476Y-109539761D01*
X147100476Y-109539761D02*
X147005238Y-109587380D01*
X147005238Y-109587380D02*
X146767143Y-109587380D01*
X146767143Y-109587380D02*
X146671905Y-109539761D01*
X146671905Y-109539761D02*
X146624286Y-109492142D01*
%TO.C,R11*%
X138537380Y-107942857D02*
X138061190Y-108276190D01*
X138537380Y-108514285D02*
X137537380Y-108514285D01*
X137537380Y-108514285D02*
X137537380Y-108133333D01*
X137537380Y-108133333D02*
X137585000Y-108038095D01*
X137585000Y-108038095D02*
X137632619Y-107990476D01*
X137632619Y-107990476D02*
X137727857Y-107942857D01*
X137727857Y-107942857D02*
X137870714Y-107942857D01*
X137870714Y-107942857D02*
X137965952Y-107990476D01*
X137965952Y-107990476D02*
X138013571Y-108038095D01*
X138013571Y-108038095D02*
X138061190Y-108133333D01*
X138061190Y-108133333D02*
X138061190Y-108514285D01*
X138537380Y-106990476D02*
X138537380Y-107561904D01*
X138537380Y-107276190D02*
X137537380Y-107276190D01*
X137537380Y-107276190D02*
X137680238Y-107371428D01*
X137680238Y-107371428D02*
X137775476Y-107466666D01*
X137775476Y-107466666D02*
X137823095Y-107561904D01*
X138537380Y-106038095D02*
X138537380Y-106609523D01*
X138537380Y-106323809D02*
X137537380Y-106323809D01*
X137537380Y-106323809D02*
X137680238Y-106419047D01*
X137680238Y-106419047D02*
X137775476Y-106514285D01*
X137775476Y-106514285D02*
X137823095Y-106609523D01*
%TO.C,R8*%
X138796733Y-95896780D02*
X138463400Y-95420590D01*
X138225305Y-95896780D02*
X138225305Y-94896780D01*
X138225305Y-94896780D02*
X138606257Y-94896780D01*
X138606257Y-94896780D02*
X138701495Y-94944400D01*
X138701495Y-94944400D02*
X138749114Y-94992019D01*
X138749114Y-94992019D02*
X138796733Y-95087257D01*
X138796733Y-95087257D02*
X138796733Y-95230114D01*
X138796733Y-95230114D02*
X138749114Y-95325352D01*
X138749114Y-95325352D02*
X138701495Y-95372971D01*
X138701495Y-95372971D02*
X138606257Y-95420590D01*
X138606257Y-95420590D02*
X138225305Y-95420590D01*
X139368162Y-95325352D02*
X139272924Y-95277733D01*
X139272924Y-95277733D02*
X139225305Y-95230114D01*
X139225305Y-95230114D02*
X139177686Y-95134876D01*
X139177686Y-95134876D02*
X139177686Y-95087257D01*
X139177686Y-95087257D02*
X139225305Y-94992019D01*
X139225305Y-94992019D02*
X139272924Y-94944400D01*
X139272924Y-94944400D02*
X139368162Y-94896780D01*
X139368162Y-94896780D02*
X139558638Y-94896780D01*
X139558638Y-94896780D02*
X139653876Y-94944400D01*
X139653876Y-94944400D02*
X139701495Y-94992019D01*
X139701495Y-94992019D02*
X139749114Y-95087257D01*
X139749114Y-95087257D02*
X139749114Y-95134876D01*
X139749114Y-95134876D02*
X139701495Y-95230114D01*
X139701495Y-95230114D02*
X139653876Y-95277733D01*
X139653876Y-95277733D02*
X139558638Y-95325352D01*
X139558638Y-95325352D02*
X139368162Y-95325352D01*
X139368162Y-95325352D02*
X139272924Y-95372971D01*
X139272924Y-95372971D02*
X139225305Y-95420590D01*
X139225305Y-95420590D02*
X139177686Y-95515828D01*
X139177686Y-95515828D02*
X139177686Y-95706304D01*
X139177686Y-95706304D02*
X139225305Y-95801542D01*
X139225305Y-95801542D02*
X139272924Y-95849161D01*
X139272924Y-95849161D02*
X139368162Y-95896780D01*
X139368162Y-95896780D02*
X139558638Y-95896780D01*
X139558638Y-95896780D02*
X139653876Y-95849161D01*
X139653876Y-95849161D02*
X139701495Y-95801542D01*
X139701495Y-95801542D02*
X139749114Y-95706304D01*
X139749114Y-95706304D02*
X139749114Y-95515828D01*
X139749114Y-95515828D02*
X139701495Y-95420590D01*
X139701495Y-95420590D02*
X139653876Y-95372971D01*
X139653876Y-95372971D02*
X139558638Y-95325352D01*
D10*
%TO.C,C6*%
X151186667Y-106514414D02*
X151148571Y-106552509D01*
X151148571Y-106552509D02*
X151034286Y-106590604D01*
X151034286Y-106590604D02*
X150958095Y-106590604D01*
X150958095Y-106590604D02*
X150843809Y-106552509D01*
X150843809Y-106552509D02*
X150767619Y-106476319D01*
X150767619Y-106476319D02*
X150729524Y-106400128D01*
X150729524Y-106400128D02*
X150691428Y-106247747D01*
X150691428Y-106247747D02*
X150691428Y-106133461D01*
X150691428Y-106133461D02*
X150729524Y-105981080D01*
X150729524Y-105981080D02*
X150767619Y-105904890D01*
X150767619Y-105904890D02*
X150843809Y-105828700D01*
X150843809Y-105828700D02*
X150958095Y-105790604D01*
X150958095Y-105790604D02*
X151034286Y-105790604D01*
X151034286Y-105790604D02*
X151148571Y-105828700D01*
X151148571Y-105828700D02*
X151186667Y-105866795D01*
X151872381Y-105790604D02*
X151720000Y-105790604D01*
X151720000Y-105790604D02*
X151643809Y-105828700D01*
X151643809Y-105828700D02*
X151605714Y-105866795D01*
X151605714Y-105866795D02*
X151529524Y-105981080D01*
X151529524Y-105981080D02*
X151491428Y-106133461D01*
X151491428Y-106133461D02*
X151491428Y-106438223D01*
X151491428Y-106438223D02*
X151529524Y-106514414D01*
X151529524Y-106514414D02*
X151567619Y-106552509D01*
X151567619Y-106552509D02*
X151643809Y-106590604D01*
X151643809Y-106590604D02*
X151796190Y-106590604D01*
X151796190Y-106590604D02*
X151872381Y-106552509D01*
X151872381Y-106552509D02*
X151910476Y-106514414D01*
X151910476Y-106514414D02*
X151948571Y-106438223D01*
X151948571Y-106438223D02*
X151948571Y-106247747D01*
X151948571Y-106247747D02*
X151910476Y-106171557D01*
X151910476Y-106171557D02*
X151872381Y-106133461D01*
X151872381Y-106133461D02*
X151796190Y-106095366D01*
X151796190Y-106095366D02*
X151643809Y-106095366D01*
X151643809Y-106095366D02*
X151567619Y-106133461D01*
X151567619Y-106133461D02*
X151529524Y-106171557D01*
X151529524Y-106171557D02*
X151491428Y-106247747D01*
D11*
%TO.C,C13*%
X144957142Y-96412142D02*
X144909523Y-96459761D01*
X144909523Y-96459761D02*
X144766666Y-96507380D01*
X144766666Y-96507380D02*
X144671428Y-96507380D01*
X144671428Y-96507380D02*
X144528571Y-96459761D01*
X144528571Y-96459761D02*
X144433333Y-96364523D01*
X144433333Y-96364523D02*
X144385714Y-96269285D01*
X144385714Y-96269285D02*
X144338095Y-96078809D01*
X144338095Y-96078809D02*
X144338095Y-95935952D01*
X144338095Y-95935952D02*
X144385714Y-95745476D01*
X144385714Y-95745476D02*
X144433333Y-95650238D01*
X144433333Y-95650238D02*
X144528571Y-95555000D01*
X144528571Y-95555000D02*
X144671428Y-95507380D01*
X144671428Y-95507380D02*
X144766666Y-95507380D01*
X144766666Y-95507380D02*
X144909523Y-95555000D01*
X144909523Y-95555000D02*
X144957142Y-95602619D01*
X145909523Y-96507380D02*
X145338095Y-96507380D01*
X145623809Y-96507380D02*
X145623809Y-95507380D01*
X145623809Y-95507380D02*
X145528571Y-95650238D01*
X145528571Y-95650238D02*
X145433333Y-95745476D01*
X145433333Y-95745476D02*
X145338095Y-95793095D01*
X146242857Y-95507380D02*
X146861904Y-95507380D01*
X146861904Y-95507380D02*
X146528571Y-95888333D01*
X146528571Y-95888333D02*
X146671428Y-95888333D01*
X146671428Y-95888333D02*
X146766666Y-95935952D01*
X146766666Y-95935952D02*
X146814285Y-95983571D01*
X146814285Y-95983571D02*
X146861904Y-96078809D01*
X146861904Y-96078809D02*
X146861904Y-96316904D01*
X146861904Y-96316904D02*
X146814285Y-96412142D01*
X146814285Y-96412142D02*
X146766666Y-96459761D01*
X146766666Y-96459761D02*
X146671428Y-96507380D01*
X146671428Y-96507380D02*
X146385714Y-96507380D01*
X146385714Y-96507380D02*
X146290476Y-96459761D01*
X146290476Y-96459761D02*
X146242857Y-96412142D01*
%TO.C,R12*%
X134057142Y-94667380D02*
X133723809Y-94191190D01*
X133485714Y-94667380D02*
X133485714Y-93667380D01*
X133485714Y-93667380D02*
X133866666Y-93667380D01*
X133866666Y-93667380D02*
X133961904Y-93715000D01*
X133961904Y-93715000D02*
X134009523Y-93762619D01*
X134009523Y-93762619D02*
X134057142Y-93857857D01*
X134057142Y-93857857D02*
X134057142Y-94000714D01*
X134057142Y-94000714D02*
X134009523Y-94095952D01*
X134009523Y-94095952D02*
X133961904Y-94143571D01*
X133961904Y-94143571D02*
X133866666Y-94191190D01*
X133866666Y-94191190D02*
X133485714Y-94191190D01*
X135009523Y-94667380D02*
X134438095Y-94667380D01*
X134723809Y-94667380D02*
X134723809Y-93667380D01*
X134723809Y-93667380D02*
X134628571Y-93810238D01*
X134628571Y-93810238D02*
X134533333Y-93905476D01*
X134533333Y-93905476D02*
X134438095Y-93953095D01*
X135390476Y-93762619D02*
X135438095Y-93715000D01*
X135438095Y-93715000D02*
X135533333Y-93667380D01*
X135533333Y-93667380D02*
X135771428Y-93667380D01*
X135771428Y-93667380D02*
X135866666Y-93715000D01*
X135866666Y-93715000D02*
X135914285Y-93762619D01*
X135914285Y-93762619D02*
X135961904Y-93857857D01*
X135961904Y-93857857D02*
X135961904Y-93953095D01*
X135961904Y-93953095D02*
X135914285Y-94095952D01*
X135914285Y-94095952D02*
X135342857Y-94667380D01*
X135342857Y-94667380D02*
X135961904Y-94667380D01*
%TO.C,R6*%
X129333333Y-92667380D02*
X129000000Y-92191190D01*
X128761905Y-92667380D02*
X128761905Y-91667380D01*
X128761905Y-91667380D02*
X129142857Y-91667380D01*
X129142857Y-91667380D02*
X129238095Y-91715000D01*
X129238095Y-91715000D02*
X129285714Y-91762619D01*
X129285714Y-91762619D02*
X129333333Y-91857857D01*
X129333333Y-91857857D02*
X129333333Y-92000714D01*
X129333333Y-92000714D02*
X129285714Y-92095952D01*
X129285714Y-92095952D02*
X129238095Y-92143571D01*
X129238095Y-92143571D02*
X129142857Y-92191190D01*
X129142857Y-92191190D02*
X128761905Y-92191190D01*
X130190476Y-91667380D02*
X130000000Y-91667380D01*
X130000000Y-91667380D02*
X129904762Y-91715000D01*
X129904762Y-91715000D02*
X129857143Y-91762619D01*
X129857143Y-91762619D02*
X129761905Y-91905476D01*
X129761905Y-91905476D02*
X129714286Y-92095952D01*
X129714286Y-92095952D02*
X129714286Y-92476904D01*
X129714286Y-92476904D02*
X129761905Y-92572142D01*
X129761905Y-92572142D02*
X129809524Y-92619761D01*
X129809524Y-92619761D02*
X129904762Y-92667380D01*
X129904762Y-92667380D02*
X130095238Y-92667380D01*
X130095238Y-92667380D02*
X130190476Y-92619761D01*
X130190476Y-92619761D02*
X130238095Y-92572142D01*
X130238095Y-92572142D02*
X130285714Y-92476904D01*
X130285714Y-92476904D02*
X130285714Y-92238809D01*
X130285714Y-92238809D02*
X130238095Y-92143571D01*
X130238095Y-92143571D02*
X130190476Y-92095952D01*
X130190476Y-92095952D02*
X130095238Y-92048333D01*
X130095238Y-92048333D02*
X129904762Y-92048333D01*
X129904762Y-92048333D02*
X129809524Y-92095952D01*
X129809524Y-92095952D02*
X129761905Y-92143571D01*
X129761905Y-92143571D02*
X129714286Y-92238809D01*
%TO.C,C8*%
X131472142Y-98566666D02*
X131519761Y-98614285D01*
X131519761Y-98614285D02*
X131567380Y-98757142D01*
X131567380Y-98757142D02*
X131567380Y-98852380D01*
X131567380Y-98852380D02*
X131519761Y-98995237D01*
X131519761Y-98995237D02*
X131424523Y-99090475D01*
X131424523Y-99090475D02*
X131329285Y-99138094D01*
X131329285Y-99138094D02*
X131138809Y-99185713D01*
X131138809Y-99185713D02*
X130995952Y-99185713D01*
X130995952Y-99185713D02*
X130805476Y-99138094D01*
X130805476Y-99138094D02*
X130710238Y-99090475D01*
X130710238Y-99090475D02*
X130615000Y-98995237D01*
X130615000Y-98995237D02*
X130567380Y-98852380D01*
X130567380Y-98852380D02*
X130567380Y-98757142D01*
X130567380Y-98757142D02*
X130615000Y-98614285D01*
X130615000Y-98614285D02*
X130662619Y-98566666D01*
X130995952Y-97995237D02*
X130948333Y-98090475D01*
X130948333Y-98090475D02*
X130900714Y-98138094D01*
X130900714Y-98138094D02*
X130805476Y-98185713D01*
X130805476Y-98185713D02*
X130757857Y-98185713D01*
X130757857Y-98185713D02*
X130662619Y-98138094D01*
X130662619Y-98138094D02*
X130615000Y-98090475D01*
X130615000Y-98090475D02*
X130567380Y-97995237D01*
X130567380Y-97995237D02*
X130567380Y-97804761D01*
X130567380Y-97804761D02*
X130615000Y-97709523D01*
X130615000Y-97709523D02*
X130662619Y-97661904D01*
X130662619Y-97661904D02*
X130757857Y-97614285D01*
X130757857Y-97614285D02*
X130805476Y-97614285D01*
X130805476Y-97614285D02*
X130900714Y-97661904D01*
X130900714Y-97661904D02*
X130948333Y-97709523D01*
X130948333Y-97709523D02*
X130995952Y-97804761D01*
X130995952Y-97804761D02*
X130995952Y-97995237D01*
X130995952Y-97995237D02*
X131043571Y-98090475D01*
X131043571Y-98090475D02*
X131091190Y-98138094D01*
X131091190Y-98138094D02*
X131186428Y-98185713D01*
X131186428Y-98185713D02*
X131376904Y-98185713D01*
X131376904Y-98185713D02*
X131472142Y-98138094D01*
X131472142Y-98138094D02*
X131519761Y-98090475D01*
X131519761Y-98090475D02*
X131567380Y-97995237D01*
X131567380Y-97995237D02*
X131567380Y-97804761D01*
X131567380Y-97804761D02*
X131519761Y-97709523D01*
X131519761Y-97709523D02*
X131472142Y-97661904D01*
X131472142Y-97661904D02*
X131376904Y-97614285D01*
X131376904Y-97614285D02*
X131186428Y-97614285D01*
X131186428Y-97614285D02*
X131091190Y-97661904D01*
X131091190Y-97661904D02*
X131043571Y-97709523D01*
X131043571Y-97709523D02*
X130995952Y-97804761D01*
%TO.C,C12*%
X135357142Y-95801542D02*
X135309523Y-95849161D01*
X135309523Y-95849161D02*
X135166666Y-95896780D01*
X135166666Y-95896780D02*
X135071428Y-95896780D01*
X135071428Y-95896780D02*
X134928571Y-95849161D01*
X134928571Y-95849161D02*
X134833333Y-95753923D01*
X134833333Y-95753923D02*
X134785714Y-95658685D01*
X134785714Y-95658685D02*
X134738095Y-95468209D01*
X134738095Y-95468209D02*
X134738095Y-95325352D01*
X134738095Y-95325352D02*
X134785714Y-95134876D01*
X134785714Y-95134876D02*
X134833333Y-95039638D01*
X134833333Y-95039638D02*
X134928571Y-94944400D01*
X134928571Y-94944400D02*
X135071428Y-94896780D01*
X135071428Y-94896780D02*
X135166666Y-94896780D01*
X135166666Y-94896780D02*
X135309523Y-94944400D01*
X135309523Y-94944400D02*
X135357142Y-94992019D01*
X136309523Y-95896780D02*
X135738095Y-95896780D01*
X136023809Y-95896780D02*
X136023809Y-94896780D01*
X136023809Y-94896780D02*
X135928571Y-95039638D01*
X135928571Y-95039638D02*
X135833333Y-95134876D01*
X135833333Y-95134876D02*
X135738095Y-95182495D01*
X136690476Y-94992019D02*
X136738095Y-94944400D01*
X136738095Y-94944400D02*
X136833333Y-94896780D01*
X136833333Y-94896780D02*
X137071428Y-94896780D01*
X137071428Y-94896780D02*
X137166666Y-94944400D01*
X137166666Y-94944400D02*
X137214285Y-94992019D01*
X137214285Y-94992019D02*
X137261904Y-95087257D01*
X137261904Y-95087257D02*
X137261904Y-95182495D01*
X137261904Y-95182495D02*
X137214285Y-95325352D01*
X137214285Y-95325352D02*
X136642857Y-95896780D01*
X136642857Y-95896780D02*
X137261904Y-95896780D01*
%TO.C,C11*%
X137757142Y-104472142D02*
X137709523Y-104519761D01*
X137709523Y-104519761D02*
X137566666Y-104567380D01*
X137566666Y-104567380D02*
X137471428Y-104567380D01*
X137471428Y-104567380D02*
X137328571Y-104519761D01*
X137328571Y-104519761D02*
X137233333Y-104424523D01*
X137233333Y-104424523D02*
X137185714Y-104329285D01*
X137185714Y-104329285D02*
X137138095Y-104138809D01*
X137138095Y-104138809D02*
X137138095Y-103995952D01*
X137138095Y-103995952D02*
X137185714Y-103805476D01*
X137185714Y-103805476D02*
X137233333Y-103710238D01*
X137233333Y-103710238D02*
X137328571Y-103615000D01*
X137328571Y-103615000D02*
X137471428Y-103567380D01*
X137471428Y-103567380D02*
X137566666Y-103567380D01*
X137566666Y-103567380D02*
X137709523Y-103615000D01*
X137709523Y-103615000D02*
X137757142Y-103662619D01*
X138709523Y-104567380D02*
X138138095Y-104567380D01*
X138423809Y-104567380D02*
X138423809Y-103567380D01*
X138423809Y-103567380D02*
X138328571Y-103710238D01*
X138328571Y-103710238D02*
X138233333Y-103805476D01*
X138233333Y-103805476D02*
X138138095Y-103853095D01*
X139661904Y-104567380D02*
X139090476Y-104567380D01*
X139376190Y-104567380D02*
X139376190Y-103567380D01*
X139376190Y-103567380D02*
X139280952Y-103710238D01*
X139280952Y-103710238D02*
X139185714Y-103805476D01*
X139185714Y-103805476D02*
X139090476Y-103853095D01*
D10*
%TO.C,U1*%
X150712676Y-104733904D02*
X150712676Y-105381523D01*
X150712676Y-105381523D02*
X150750771Y-105457714D01*
X150750771Y-105457714D02*
X150788866Y-105495809D01*
X150788866Y-105495809D02*
X150865057Y-105533904D01*
X150865057Y-105533904D02*
X151017438Y-105533904D01*
X151017438Y-105533904D02*
X151093628Y-105495809D01*
X151093628Y-105495809D02*
X151131723Y-105457714D01*
X151131723Y-105457714D02*
X151169819Y-105381523D01*
X151169819Y-105381523D02*
X151169819Y-104733904D01*
X151969818Y-105533904D02*
X151512675Y-105533904D01*
X151741247Y-105533904D02*
X151741247Y-104733904D01*
X151741247Y-104733904D02*
X151665056Y-104848190D01*
X151665056Y-104848190D02*
X151588866Y-104924380D01*
X151588866Y-104924380D02*
X151512675Y-104962476D01*
D11*
%TO.C,Q2*%
X128904761Y-98862619D02*
X128809523Y-98815000D01*
X128809523Y-98815000D02*
X128714285Y-98719761D01*
X128714285Y-98719761D02*
X128571428Y-98576904D01*
X128571428Y-98576904D02*
X128476190Y-98529285D01*
X128476190Y-98529285D02*
X128380952Y-98529285D01*
X128428571Y-98767380D02*
X128333333Y-98719761D01*
X128333333Y-98719761D02*
X128238095Y-98624523D01*
X128238095Y-98624523D02*
X128190476Y-98434047D01*
X128190476Y-98434047D02*
X128190476Y-98100714D01*
X128190476Y-98100714D02*
X128238095Y-97910238D01*
X128238095Y-97910238D02*
X128333333Y-97815000D01*
X128333333Y-97815000D02*
X128428571Y-97767380D01*
X128428571Y-97767380D02*
X128619047Y-97767380D01*
X128619047Y-97767380D02*
X128714285Y-97815000D01*
X128714285Y-97815000D02*
X128809523Y-97910238D01*
X128809523Y-97910238D02*
X128857142Y-98100714D01*
X128857142Y-98100714D02*
X128857142Y-98434047D01*
X128857142Y-98434047D02*
X128809523Y-98624523D01*
X128809523Y-98624523D02*
X128714285Y-98719761D01*
X128714285Y-98719761D02*
X128619047Y-98767380D01*
X128619047Y-98767380D02*
X128428571Y-98767380D01*
X129238095Y-97862619D02*
X129285714Y-97815000D01*
X129285714Y-97815000D02*
X129380952Y-97767380D01*
X129380952Y-97767380D02*
X129619047Y-97767380D01*
X129619047Y-97767380D02*
X129714285Y-97815000D01*
X129714285Y-97815000D02*
X129761904Y-97862619D01*
X129761904Y-97862619D02*
X129809523Y-97957857D01*
X129809523Y-97957857D02*
X129809523Y-98053095D01*
X129809523Y-98053095D02*
X129761904Y-98195952D01*
X129761904Y-98195952D02*
X129190476Y-98767380D01*
X129190476Y-98767380D02*
X129809523Y-98767380D01*
%TO.C,C2*%
X130109933Y-110101742D02*
X130062314Y-110149361D01*
X130062314Y-110149361D02*
X129919457Y-110196980D01*
X129919457Y-110196980D02*
X129824219Y-110196980D01*
X129824219Y-110196980D02*
X129681362Y-110149361D01*
X129681362Y-110149361D02*
X129586124Y-110054123D01*
X129586124Y-110054123D02*
X129538505Y-109958885D01*
X129538505Y-109958885D02*
X129490886Y-109768409D01*
X129490886Y-109768409D02*
X129490886Y-109625552D01*
X129490886Y-109625552D02*
X129538505Y-109435076D01*
X129538505Y-109435076D02*
X129586124Y-109339838D01*
X129586124Y-109339838D02*
X129681362Y-109244600D01*
X129681362Y-109244600D02*
X129824219Y-109196980D01*
X129824219Y-109196980D02*
X129919457Y-109196980D01*
X129919457Y-109196980D02*
X130062314Y-109244600D01*
X130062314Y-109244600D02*
X130109933Y-109292219D01*
X130490886Y-109292219D02*
X130538505Y-109244600D01*
X130538505Y-109244600D02*
X130633743Y-109196980D01*
X130633743Y-109196980D02*
X130871838Y-109196980D01*
X130871838Y-109196980D02*
X130967076Y-109244600D01*
X130967076Y-109244600D02*
X131014695Y-109292219D01*
X131014695Y-109292219D02*
X131062314Y-109387457D01*
X131062314Y-109387457D02*
X131062314Y-109482695D01*
X131062314Y-109482695D02*
X131014695Y-109625552D01*
X131014695Y-109625552D02*
X130443267Y-110196980D01*
X130443267Y-110196980D02*
X131062314Y-110196980D01*
%TO.C,C4*%
X132116533Y-110127142D02*
X132068914Y-110174761D01*
X132068914Y-110174761D02*
X131926057Y-110222380D01*
X131926057Y-110222380D02*
X131830819Y-110222380D01*
X131830819Y-110222380D02*
X131687962Y-110174761D01*
X131687962Y-110174761D02*
X131592724Y-110079523D01*
X131592724Y-110079523D02*
X131545105Y-109984285D01*
X131545105Y-109984285D02*
X131497486Y-109793809D01*
X131497486Y-109793809D02*
X131497486Y-109650952D01*
X131497486Y-109650952D02*
X131545105Y-109460476D01*
X131545105Y-109460476D02*
X131592724Y-109365238D01*
X131592724Y-109365238D02*
X131687962Y-109270000D01*
X131687962Y-109270000D02*
X131830819Y-109222380D01*
X131830819Y-109222380D02*
X131926057Y-109222380D01*
X131926057Y-109222380D02*
X132068914Y-109270000D01*
X132068914Y-109270000D02*
X132116533Y-109317619D01*
X132973676Y-109555714D02*
X132973676Y-110222380D01*
X132735581Y-109174761D02*
X132497486Y-109889047D01*
X132497486Y-109889047D02*
X133116533Y-109889047D01*
D10*
%TO.C,R3*%
X148293904Y-93933332D02*
X147912952Y-94199999D01*
X148293904Y-94390475D02*
X147493904Y-94390475D01*
X147493904Y-94390475D02*
X147493904Y-94085713D01*
X147493904Y-94085713D02*
X147532000Y-94009523D01*
X147532000Y-94009523D02*
X147570095Y-93971428D01*
X147570095Y-93971428D02*
X147646285Y-93933332D01*
X147646285Y-93933332D02*
X147760571Y-93933332D01*
X147760571Y-93933332D02*
X147836761Y-93971428D01*
X147836761Y-93971428D02*
X147874857Y-94009523D01*
X147874857Y-94009523D02*
X147912952Y-94085713D01*
X147912952Y-94085713D02*
X147912952Y-94390475D01*
X147493904Y-93666666D02*
X147493904Y-93171428D01*
X147493904Y-93171428D02*
X147798666Y-93438094D01*
X147798666Y-93438094D02*
X147798666Y-93323809D01*
X147798666Y-93323809D02*
X147836761Y-93247618D01*
X147836761Y-93247618D02*
X147874857Y-93209523D01*
X147874857Y-93209523D02*
X147951047Y-93171428D01*
X147951047Y-93171428D02*
X148141523Y-93171428D01*
X148141523Y-93171428D02*
X148217714Y-93209523D01*
X148217714Y-93209523D02*
X148255809Y-93247618D01*
X148255809Y-93247618D02*
X148293904Y-93323809D01*
X148293904Y-93323809D02*
X148293904Y-93552380D01*
X148293904Y-93552380D02*
X148255809Y-93628571D01*
X148255809Y-93628571D02*
X148217714Y-93666666D01*
D11*
%TO.C,R7*%
X129307933Y-91143380D02*
X128974600Y-90667190D01*
X128736505Y-91143380D02*
X128736505Y-90143380D01*
X128736505Y-90143380D02*
X129117457Y-90143380D01*
X129117457Y-90143380D02*
X129212695Y-90191000D01*
X129212695Y-90191000D02*
X129260314Y-90238619D01*
X129260314Y-90238619D02*
X129307933Y-90333857D01*
X129307933Y-90333857D02*
X129307933Y-90476714D01*
X129307933Y-90476714D02*
X129260314Y-90571952D01*
X129260314Y-90571952D02*
X129212695Y-90619571D01*
X129212695Y-90619571D02*
X129117457Y-90667190D01*
X129117457Y-90667190D02*
X128736505Y-90667190D01*
X129641267Y-90143380D02*
X130307933Y-90143380D01*
X130307933Y-90143380D02*
X129879362Y-91143380D01*
%TO.C,C10*%
X142105142Y-97046142D02*
X142057523Y-97093761D01*
X142057523Y-97093761D02*
X141914666Y-97141380D01*
X141914666Y-97141380D02*
X141819428Y-97141380D01*
X141819428Y-97141380D02*
X141676571Y-97093761D01*
X141676571Y-97093761D02*
X141581333Y-96998523D01*
X141581333Y-96998523D02*
X141533714Y-96903285D01*
X141533714Y-96903285D02*
X141486095Y-96712809D01*
X141486095Y-96712809D02*
X141486095Y-96569952D01*
X141486095Y-96569952D02*
X141533714Y-96379476D01*
X141533714Y-96379476D02*
X141581333Y-96284238D01*
X141581333Y-96284238D02*
X141676571Y-96189000D01*
X141676571Y-96189000D02*
X141819428Y-96141380D01*
X141819428Y-96141380D02*
X141914666Y-96141380D01*
X141914666Y-96141380D02*
X142057523Y-96189000D01*
X142057523Y-96189000D02*
X142105142Y-96236619D01*
X143057523Y-97141380D02*
X142486095Y-97141380D01*
X142771809Y-97141380D02*
X142771809Y-96141380D01*
X142771809Y-96141380D02*
X142676571Y-96284238D01*
X142676571Y-96284238D02*
X142581333Y-96379476D01*
X142581333Y-96379476D02*
X142486095Y-96427095D01*
X143676571Y-96141380D02*
X143771809Y-96141380D01*
X143771809Y-96141380D02*
X143867047Y-96189000D01*
X143867047Y-96189000D02*
X143914666Y-96236619D01*
X143914666Y-96236619D02*
X143962285Y-96331857D01*
X143962285Y-96331857D02*
X144009904Y-96522333D01*
X144009904Y-96522333D02*
X144009904Y-96760428D01*
X144009904Y-96760428D02*
X143962285Y-96950904D01*
X143962285Y-96950904D02*
X143914666Y-97046142D01*
X143914666Y-97046142D02*
X143867047Y-97093761D01*
X143867047Y-97093761D02*
X143771809Y-97141380D01*
X143771809Y-97141380D02*
X143676571Y-97141380D01*
X143676571Y-97141380D02*
X143581333Y-97093761D01*
X143581333Y-97093761D02*
X143533714Y-97046142D01*
X143533714Y-97046142D02*
X143486095Y-96950904D01*
X143486095Y-96950904D02*
X143438476Y-96760428D01*
X143438476Y-96760428D02*
X143438476Y-96522333D01*
X143438476Y-96522333D02*
X143486095Y-96331857D01*
X143486095Y-96331857D02*
X143533714Y-96236619D01*
X143533714Y-96236619D02*
X143581333Y-96189000D01*
X143581333Y-96189000D02*
X143676571Y-96141380D01*
%TO.C,R1*%
X141833333Y-109817380D02*
X141500000Y-109341190D01*
X141261905Y-109817380D02*
X141261905Y-108817380D01*
X141261905Y-108817380D02*
X141642857Y-108817380D01*
X141642857Y-108817380D02*
X141738095Y-108865000D01*
X141738095Y-108865000D02*
X141785714Y-108912619D01*
X141785714Y-108912619D02*
X141833333Y-109007857D01*
X141833333Y-109007857D02*
X141833333Y-109150714D01*
X141833333Y-109150714D02*
X141785714Y-109245952D01*
X141785714Y-109245952D02*
X141738095Y-109293571D01*
X141738095Y-109293571D02*
X141642857Y-109341190D01*
X141642857Y-109341190D02*
X141261905Y-109341190D01*
X142785714Y-109817380D02*
X142214286Y-109817380D01*
X142500000Y-109817380D02*
X142500000Y-108817380D01*
X142500000Y-108817380D02*
X142404762Y-108960238D01*
X142404762Y-108960238D02*
X142309524Y-109055476D01*
X142309524Y-109055476D02*
X142214286Y-109103095D01*
%TO.C,R9*%
X129793333Y-105817380D02*
X129460000Y-105341190D01*
X129221905Y-105817380D02*
X129221905Y-104817380D01*
X129221905Y-104817380D02*
X129602857Y-104817380D01*
X129602857Y-104817380D02*
X129698095Y-104865000D01*
X129698095Y-104865000D02*
X129745714Y-104912619D01*
X129745714Y-104912619D02*
X129793333Y-105007857D01*
X129793333Y-105007857D02*
X129793333Y-105150714D01*
X129793333Y-105150714D02*
X129745714Y-105245952D01*
X129745714Y-105245952D02*
X129698095Y-105293571D01*
X129698095Y-105293571D02*
X129602857Y-105341190D01*
X129602857Y-105341190D02*
X129221905Y-105341190D01*
X130269524Y-105817380D02*
X130460000Y-105817380D01*
X130460000Y-105817380D02*
X130555238Y-105769761D01*
X130555238Y-105769761D02*
X130602857Y-105722142D01*
X130602857Y-105722142D02*
X130698095Y-105579285D01*
X130698095Y-105579285D02*
X130745714Y-105388809D01*
X130745714Y-105388809D02*
X130745714Y-105007857D01*
X130745714Y-105007857D02*
X130698095Y-104912619D01*
X130698095Y-104912619D02*
X130650476Y-104865000D01*
X130650476Y-104865000D02*
X130555238Y-104817380D01*
X130555238Y-104817380D02*
X130364762Y-104817380D01*
X130364762Y-104817380D02*
X130269524Y-104865000D01*
X130269524Y-104865000D02*
X130221905Y-104912619D01*
X130221905Y-104912619D02*
X130174286Y-105007857D01*
X130174286Y-105007857D02*
X130174286Y-105245952D01*
X130174286Y-105245952D02*
X130221905Y-105341190D01*
X130221905Y-105341190D02*
X130269524Y-105388809D01*
X130269524Y-105388809D02*
X130364762Y-105436428D01*
X130364762Y-105436428D02*
X130555238Y-105436428D01*
X130555238Y-105436428D02*
X130650476Y-105388809D01*
X130650476Y-105388809D02*
X130698095Y-105341190D01*
X130698095Y-105341190D02*
X130745714Y-105245952D01*
%TO.C,C3*%
X146253333Y-108272142D02*
X146205714Y-108319761D01*
X146205714Y-108319761D02*
X146062857Y-108367380D01*
X146062857Y-108367380D02*
X145967619Y-108367380D01*
X145967619Y-108367380D02*
X145824762Y-108319761D01*
X145824762Y-108319761D02*
X145729524Y-108224523D01*
X145729524Y-108224523D02*
X145681905Y-108129285D01*
X145681905Y-108129285D02*
X145634286Y-107938809D01*
X145634286Y-107938809D02*
X145634286Y-107795952D01*
X145634286Y-107795952D02*
X145681905Y-107605476D01*
X145681905Y-107605476D02*
X145729524Y-107510238D01*
X145729524Y-107510238D02*
X145824762Y-107415000D01*
X145824762Y-107415000D02*
X145967619Y-107367380D01*
X145967619Y-107367380D02*
X146062857Y-107367380D01*
X146062857Y-107367380D02*
X146205714Y-107415000D01*
X146205714Y-107415000D02*
X146253333Y-107462619D01*
X146586667Y-107367380D02*
X147205714Y-107367380D01*
X147205714Y-107367380D02*
X146872381Y-107748333D01*
X146872381Y-107748333D02*
X147015238Y-107748333D01*
X147015238Y-107748333D02*
X147110476Y-107795952D01*
X147110476Y-107795952D02*
X147158095Y-107843571D01*
X147158095Y-107843571D02*
X147205714Y-107938809D01*
X147205714Y-107938809D02*
X147205714Y-108176904D01*
X147205714Y-108176904D02*
X147158095Y-108272142D01*
X147158095Y-108272142D02*
X147110476Y-108319761D01*
X147110476Y-108319761D02*
X147015238Y-108367380D01*
X147015238Y-108367380D02*
X146729524Y-108367380D01*
X146729524Y-108367380D02*
X146634286Y-108319761D01*
X146634286Y-108319761D02*
X146586667Y-108272142D01*
%TO.C,R5*%
X134933333Y-93267380D02*
X134600000Y-92791190D01*
X134361905Y-93267380D02*
X134361905Y-92267380D01*
X134361905Y-92267380D02*
X134742857Y-92267380D01*
X134742857Y-92267380D02*
X134838095Y-92315000D01*
X134838095Y-92315000D02*
X134885714Y-92362619D01*
X134885714Y-92362619D02*
X134933333Y-92457857D01*
X134933333Y-92457857D02*
X134933333Y-92600714D01*
X134933333Y-92600714D02*
X134885714Y-92695952D01*
X134885714Y-92695952D02*
X134838095Y-92743571D01*
X134838095Y-92743571D02*
X134742857Y-92791190D01*
X134742857Y-92791190D02*
X134361905Y-92791190D01*
X135838095Y-92267380D02*
X135361905Y-92267380D01*
X135361905Y-92267380D02*
X135314286Y-92743571D01*
X135314286Y-92743571D02*
X135361905Y-92695952D01*
X135361905Y-92695952D02*
X135457143Y-92648333D01*
X135457143Y-92648333D02*
X135695238Y-92648333D01*
X135695238Y-92648333D02*
X135790476Y-92695952D01*
X135790476Y-92695952D02*
X135838095Y-92743571D01*
X135838095Y-92743571D02*
X135885714Y-92838809D01*
X135885714Y-92838809D02*
X135885714Y-93076904D01*
X135885714Y-93076904D02*
X135838095Y-93172142D01*
X135838095Y-93172142D02*
X135790476Y-93219761D01*
X135790476Y-93219761D02*
X135695238Y-93267380D01*
X135695238Y-93267380D02*
X135457143Y-93267380D01*
X135457143Y-93267380D02*
X135361905Y-93219761D01*
X135361905Y-93219761D02*
X135314286Y-93172142D01*
D10*
%TO.C,R4*%
X150490000Y-94690000D02*
X153110000Y-94690000D01*
X153110000Y-94690000D02*
X153110000Y-95820000D01*
X153110000Y-95820000D02*
X150490000Y-95820000D01*
X150490000Y-95820000D02*
X150490000Y-94690000D01*
%TO.C,D1*%
X134038000Y-106476000D02*
X135508000Y-106476000D01*
%TO.C,R10*%
X153110000Y-97370000D02*
X150490000Y-97370000D01*
X150490000Y-97370000D02*
X150490000Y-96240000D01*
X150490000Y-96240000D02*
X153110000Y-96240000D01*
X153110000Y-96240000D02*
X153110000Y-97370000D01*
%TO.C,C7*%
X148900000Y-97340000D02*
X150100000Y-97340000D01*
X150100000Y-97340000D02*
X150100000Y-94740000D01*
X150100000Y-94740000D02*
X148900000Y-94740000D01*
X148900000Y-94740000D02*
X148900000Y-97340000D01*
D13*
%TO.C,L1*%
X147102200Y-98763300D02*
X147102200Y-101063300D01*
D10*
%TO.C,C9*%
X133086400Y-100020500D02*
X131886400Y-100020500D01*
X131886400Y-100020500D02*
X131886400Y-102620500D01*
X131886400Y-102620500D02*
X133086400Y-102620500D01*
X133086400Y-102620500D02*
X133086400Y-100020500D01*
%TO.C,MK5*%
X123928400Y-98071200D02*
X127328400Y-98071200D01*
X123928400Y-101471200D02*
X123928400Y-98071200D01*
X127328400Y-98071200D02*
X127328400Y-101471200D01*
X127328400Y-101471200D02*
X123928400Y-101471200D01*
%TO.C,Q1*%
X128168600Y-94330400D02*
X128168600Y-97490400D01*
X130528600Y-94330400D02*
X128168600Y-94330400D01*
X130528600Y-94330400D02*
X130528600Y-95310400D01*
X130528600Y-95310400D02*
X131368600Y-95310400D01*
X130528600Y-97490400D02*
X128168600Y-97490400D01*
X130528600Y-97490400D02*
X130528600Y-96510400D01*
X131368600Y-95310400D02*
X131368600Y-96510400D01*
X131368600Y-96510400D02*
X130528600Y-96510400D01*
%TO.C,R2*%
X136960000Y-106690000D02*
X135830000Y-106690000D01*
X135830000Y-106690000D02*
X135830000Y-109310000D01*
X135830000Y-109310000D02*
X136960000Y-109310000D01*
X136960000Y-109310000D02*
X136960000Y-106690000D01*
%TO.C,MK8*%
X123877600Y-93956400D02*
X127277600Y-93956400D01*
X123877600Y-97356400D02*
X123877600Y-93956400D01*
X127277600Y-93956400D02*
X127277600Y-97356400D01*
X127277600Y-97356400D02*
X123877600Y-97356400D01*
%TO.C,C1*%
X143100000Y-108550000D02*
X144300000Y-108550000D01*
X144300000Y-108550000D02*
X144300000Y-105950000D01*
X144300000Y-105950000D02*
X143100000Y-105950000D01*
X143100000Y-105950000D02*
X143100000Y-108550000D01*
%TO.C,U3*%
X133472800Y-97933200D02*
X133472800Y-98533200D01*
X133472800Y-98533200D02*
X133972800Y-98233200D01*
X133972800Y-98233200D02*
X133472800Y-97933200D01*
D11*
X134197800Y-97733200D02*
X140172800Y-97733200D01*
X135772800Y-103258200D02*
X140172800Y-103258200D01*
D10*
%TO.C,C5*%
X145670000Y-103950000D02*
X148870000Y-103950000D01*
X148870000Y-103950000D02*
X148870000Y-105550000D01*
X148870000Y-105550000D02*
X145670000Y-105550000D01*
X145670000Y-105550000D02*
X145670000Y-103950000D01*
%TO.C,R11*%
X139040000Y-108610000D02*
X140170000Y-108610000D01*
X140170000Y-108610000D02*
X140170000Y-105990000D01*
X140170000Y-105990000D02*
X139040000Y-105990000D01*
X139040000Y-105990000D02*
X139040000Y-108610000D01*
%TO.C,R8*%
X140298800Y-97334000D02*
X137678800Y-97334000D01*
X137678800Y-97334000D02*
X137678800Y-96204000D01*
X137678800Y-96204000D02*
X140298800Y-96204000D01*
X140298800Y-96204000D02*
X140298800Y-97334000D01*
%TO.C,C6*%
X151778200Y-104424000D02*
X150868200Y-104424000D01*
X151778200Y-102604000D02*
X150868200Y-102604000D01*
%TO.C,C13*%
X146900000Y-98010000D02*
X144300000Y-98010000D01*
X144300000Y-98010000D02*
X144300000Y-96810000D01*
X144300000Y-96810000D02*
X146900000Y-96810000D01*
X146900000Y-96810000D02*
X146900000Y-98010000D01*
%TO.C,R12*%
X131940000Y-96510000D02*
X133070000Y-96510000D01*
X133070000Y-96510000D02*
X133070000Y-93890000D01*
X133070000Y-93890000D02*
X131940000Y-93890000D01*
X131940000Y-93890000D02*
X131940000Y-96510000D01*
%TO.C,R6*%
X133339200Y-93219200D02*
X130719200Y-93219200D01*
X130719200Y-93219200D02*
X130719200Y-92089200D01*
X130719200Y-92089200D02*
X133339200Y-92089200D01*
X133339200Y-92089200D02*
X133339200Y-93219200D01*
%TO.C,C8*%
X133086400Y-96972600D02*
X131886400Y-96972600D01*
X131886400Y-96972600D02*
X131886400Y-99572600D01*
X131886400Y-99572600D02*
X133086400Y-99572600D01*
X133086400Y-99572600D02*
X133086400Y-96972600D01*
%TO.C,C12*%
X137113800Y-97374000D02*
X134513800Y-97374000D01*
X134513800Y-97374000D02*
X134513800Y-96174000D01*
X134513800Y-96174000D02*
X137113800Y-96174000D01*
X137113800Y-96174000D02*
X137113800Y-97374000D01*
%TO.C,C11*%
X136809000Y-104740000D02*
X134209000Y-104740000D01*
X134209000Y-104740000D02*
X134209000Y-103540000D01*
X134209000Y-103540000D02*
X136809000Y-103540000D01*
X136809000Y-103540000D02*
X136809000Y-104740000D01*
%TO.C,U1*%
X149990000Y-102310000D02*
X150290000Y-101710000D01*
X150590000Y-102310000D02*
X149990000Y-102310000D01*
X150290000Y-101710000D02*
X150590000Y-102310000D01*
X152990000Y-101510000D02*
X152990000Y-98310000D01*
X149590000Y-98310000D02*
X149590000Y-101510000D01*
%TO.C,Q2*%
X128168600Y-99140000D02*
X128168600Y-102300000D01*
X130528600Y-99140000D02*
X128168600Y-99140000D01*
X130528600Y-99140000D02*
X130528600Y-100120000D01*
X130528600Y-100120000D02*
X131368600Y-100120000D01*
X130528600Y-102300000D02*
X128168600Y-102300000D01*
X130528600Y-102300000D02*
X130528600Y-101320000D01*
X131368600Y-100120000D02*
X131368600Y-101320000D01*
X131368600Y-101320000D02*
X130528600Y-101320000D01*
%TO.C,MK4*%
X139392000Y-89732000D02*
X141792000Y-89732000D01*
X139392000Y-92132000D02*
X139392000Y-89732000D01*
X141792000Y-89732000D02*
X141792000Y-92132000D01*
X141792000Y-92132000D02*
X139392000Y-92132000D01*
%TO.C,C2*%
X131105200Y-106192800D02*
X129905200Y-106192800D01*
X129905200Y-106192800D02*
X129905200Y-108792800D01*
X129905200Y-108792800D02*
X131105200Y-108792800D01*
X131105200Y-108792800D02*
X131105200Y-106192800D01*
%TO.C,C4*%
X132680000Y-106192800D02*
X131480000Y-106192800D01*
X131480000Y-106192800D02*
X131480000Y-108792800D01*
X131480000Y-108792800D02*
X132680000Y-108792800D01*
X132680000Y-108792800D02*
X132680000Y-106192800D01*
%TO.C,R3*%
X147340000Y-97350000D02*
X148470000Y-97350000D01*
X148470000Y-97350000D02*
X148470000Y-94730000D01*
X148470000Y-94730000D02*
X147340000Y-94730000D01*
X147340000Y-94730000D02*
X147340000Y-97350000D01*
%TO.C,R7*%
X133339200Y-91695200D02*
X130719200Y-91695200D01*
X130719200Y-91695200D02*
X130719200Y-90565200D01*
X130719200Y-90565200D02*
X133339200Y-90565200D01*
X133339200Y-90565200D02*
X133339200Y-91695200D01*
%TO.C,C10*%
X143348000Y-97480600D02*
X142148000Y-97480600D01*
X142148000Y-97480600D02*
X142148000Y-100080600D01*
X142148000Y-100080600D02*
X143348000Y-100080600D01*
X143348000Y-100080600D02*
X143348000Y-97480600D01*
%TO.C,MK1*%
X149820000Y-106810000D02*
X153220000Y-106810000D01*
X149820000Y-110210000D02*
X149820000Y-106810000D01*
X153220000Y-106810000D02*
X153220000Y-110210000D01*
X153220000Y-110210000D02*
X149820000Y-110210000D01*
%TO.C,MK2*%
X149800000Y-89840000D02*
X153200000Y-89840000D01*
X149800000Y-93240000D02*
X149800000Y-89840000D01*
X153200000Y-89840000D02*
X153200000Y-93240000D01*
X153200000Y-93240000D02*
X149800000Y-93240000D01*
%TO.C,MK7*%
X123928400Y-102236800D02*
X127328400Y-102236800D01*
X123928400Y-105636800D02*
X123928400Y-102236800D01*
X127328400Y-102236800D02*
X127328400Y-105636800D01*
X127328400Y-105636800D02*
X123928400Y-105636800D01*
%TO.C,MK3*%
X142542000Y-89732000D02*
X144942000Y-89732000D01*
X142542000Y-92132000D02*
X142542000Y-89732000D01*
X144942000Y-89732000D02*
X144942000Y-92132000D01*
X144942000Y-92132000D02*
X142542000Y-92132000D01*
%TO.C,R1*%
X142710000Y-105940000D02*
X141580000Y-105940000D01*
X141580000Y-105940000D02*
X141580000Y-108560000D01*
X141580000Y-108560000D02*
X142710000Y-108560000D01*
X142710000Y-108560000D02*
X142710000Y-105940000D01*
%TO.C,R9*%
X131280000Y-104500000D02*
X128660000Y-104500000D01*
X128660000Y-104500000D02*
X128660000Y-103370000D01*
X128660000Y-103370000D02*
X131280000Y-103370000D01*
X131280000Y-103370000D02*
X131280000Y-104500000D01*
%TO.C,MK6*%
X136264800Y-89732000D02*
X138664800Y-89732000D01*
X136264800Y-92132000D02*
X136264800Y-89732000D01*
X138664800Y-89732000D02*
X138664800Y-92132000D01*
X138664800Y-92132000D02*
X136264800Y-92132000D01*
%TO.C,C3*%
X145670000Y-101980000D02*
X148870000Y-101980000D01*
X148870000Y-101980000D02*
X148870000Y-103580000D01*
X148870000Y-103580000D02*
X145670000Y-103580000D01*
X145670000Y-103580000D02*
X145670000Y-101980000D01*
%TO.C,R5*%
X139003400Y-94032000D02*
X136383400Y-94032000D01*
X136383400Y-94032000D02*
X136383400Y-92902000D01*
X136383400Y-92902000D02*
X139003400Y-92902000D01*
X139003400Y-92902000D02*
X139003400Y-94032000D01*
%TD*%
M02*
