%TF.GenerationSoftware,KiCad,Pcbnew,(7.0.0)*%
%TF.CreationDate,2023-02-17T23:27:10-08:00*%
%TF.ProjectId,seatalk_wifi,73656174-616c-46b5-9f77-6966692e6b69,rev?*%
%TF.SameCoordinates,Original*%
%TF.FileFunction,Drillmap*%
%TF.FilePolarity,Positive*%
%FSLAX45Y45*%
G04 Gerber Fmt 4.5, Leading zero omitted, Abs format (unit mm)*
G04 Created by KiCad (PCBNEW (7.0.0)) date 2023-02-17 23:27:10*
%MOMM*%
%LPD*%
G01*
G04 APERTURE LIST*
%ADD10C,0.050000*%
%ADD11C,0.200000*%
%ADD12C,0.030000*%
G04 APERTURE END LIST*
D10*
X12300000Y-11100000D02*
X12300000Y-8900000D01*
X15400000Y-11100000D02*
X12300000Y-11100000D01*
X15400000Y-8900000D02*
X15400000Y-11100000D01*
X12300000Y-8900000D02*
X15400000Y-8900000D01*
D11*
D12*
X12761200Y-10172940D02*
X12791200Y-10202940D01*
X12791200Y-10172940D02*
X12761200Y-10202940D01*
X12796000Y-10622720D02*
X12826000Y-10652720D01*
X12826000Y-10622720D02*
X12796000Y-10652720D01*
X12796000Y-10704000D02*
X12826000Y-10734000D01*
X12826000Y-10704000D02*
X12796000Y-10734000D01*
X12796000Y-10780728D02*
X12826000Y-10810728D01*
X12826000Y-10780728D02*
X12796000Y-10810728D01*
X12796000Y-10862008D02*
X12826000Y-10892008D01*
X12826000Y-10862008D02*
X12796000Y-10892008D01*
X12862000Y-10622720D02*
X12892000Y-10652720D01*
X12892000Y-10622720D02*
X12862000Y-10652720D01*
X12862000Y-10704000D02*
X12892000Y-10734000D01*
X12892000Y-10704000D02*
X12862000Y-10734000D01*
X12862000Y-10780728D02*
X12892000Y-10810728D01*
X12892000Y-10780728D02*
X12862000Y-10810728D01*
X12862000Y-10862008D02*
X12892000Y-10892008D01*
X12892000Y-10862008D02*
X12862000Y-10892008D01*
X12926000Y-10780720D02*
X12956000Y-10810720D01*
X12956000Y-10780720D02*
X12926000Y-10810720D01*
X12926000Y-10862000D02*
X12956000Y-10892000D01*
X12956000Y-10862000D02*
X12926000Y-10892000D01*
X12933920Y-9235680D02*
X12963920Y-9265680D01*
X12963920Y-9235680D02*
X12933920Y-9265680D01*
X12933920Y-9316960D02*
X12963920Y-9346960D01*
X12963920Y-9316960D02*
X12933920Y-9346960D01*
X13105000Y-10535000D02*
X13135000Y-10565000D01*
X13135000Y-10535000D02*
X13105000Y-10565000D01*
X13111720Y-8996920D02*
X13141720Y-9026920D01*
X13141720Y-8996920D02*
X13111720Y-9026920D01*
X13185000Y-10535000D02*
X13215000Y-10565000D01*
X13215000Y-10535000D02*
X13185000Y-10565000D01*
X13265000Y-10535000D02*
X13295000Y-10565000D01*
X13295000Y-10535000D02*
X13265000Y-10565000D01*
X13350480Y-10399000D02*
X13380480Y-10429000D01*
X13380480Y-10399000D02*
X13350480Y-10429000D01*
X13365000Y-10705000D02*
X13395000Y-10735000D01*
X13395000Y-10705000D02*
X13365000Y-10735000D01*
X13370800Y-9662400D02*
X13400800Y-9692400D01*
X13400800Y-9662400D02*
X13370800Y-9692400D01*
X13375000Y-9225000D02*
X13405000Y-9255000D01*
X13405000Y-9225000D02*
X13375000Y-9255000D01*
X13566380Y-9332200D02*
X13596380Y-9362200D01*
X13596380Y-9332200D02*
X13566380Y-9362200D01*
X13945000Y-10135000D02*
X13975000Y-10165000D01*
X13975000Y-10135000D02*
X13945000Y-10165000D01*
X13945000Y-10525000D02*
X13975000Y-10555000D01*
X13975000Y-10525000D02*
X13945000Y-10555000D01*
X13949920Y-9939260D02*
X13979920Y-9969260D01*
X13979920Y-9939260D02*
X13949920Y-9969260D01*
X14071840Y-10571720D02*
X14101840Y-10601720D01*
X14101840Y-10571720D02*
X14071840Y-10601720D01*
X14175000Y-9225000D02*
X14205000Y-9255000D01*
X14205000Y-9225000D02*
X14175000Y-9255000D01*
X14175000Y-9565000D02*
X14205000Y-9595000D01*
X14205000Y-9565000D02*
X14175000Y-9595000D01*
X14356320Y-10526000D02*
X14386320Y-10556000D01*
X14386320Y-10526000D02*
X14356320Y-10556000D01*
X14365000Y-9225000D02*
X14395000Y-9255000D01*
X14395000Y-9225000D02*
X14365000Y-9255000D01*
X14559520Y-10785080D02*
X14589520Y-10815080D01*
X14589520Y-10785080D02*
X14559520Y-10815080D01*
X14685000Y-8965000D02*
X14715000Y-8995000D01*
X14715000Y-8965000D02*
X14685000Y-8995000D01*
X14685000Y-9065000D02*
X14715000Y-9095000D01*
X14715000Y-9065000D02*
X14685000Y-9095000D01*
X14685000Y-9165000D02*
X14715000Y-9195000D01*
X14715000Y-9165000D02*
X14685000Y-9195000D01*
X14685000Y-9265000D02*
X14715000Y-9295000D01*
X14715000Y-9265000D02*
X14685000Y-9295000D01*
X14685000Y-9365000D02*
X14715000Y-9395000D01*
X14715000Y-9365000D02*
X14685000Y-9395000D01*
X14769880Y-10600000D02*
X14799880Y-10630000D01*
X14799880Y-10600000D02*
X14769880Y-10630000D01*
X14769880Y-10670000D02*
X14799880Y-10700000D01*
X14799880Y-10670000D02*
X14769880Y-10700000D01*
X14769880Y-10741000D02*
X14799880Y-10771000D01*
X14799880Y-10741000D02*
X14769880Y-10771000D01*
X14775000Y-8965000D02*
X14805000Y-8995000D01*
X14805000Y-8965000D02*
X14775000Y-8995000D01*
X14775000Y-9065000D02*
X14805000Y-9095000D01*
X14805000Y-9065000D02*
X14775000Y-9095000D01*
X14775000Y-9165000D02*
X14805000Y-9195000D01*
X14805000Y-9165000D02*
X14775000Y-9195000D01*
X14775000Y-9265000D02*
X14805000Y-9295000D01*
X14805000Y-9265000D02*
X14775000Y-9295000D01*
X14775000Y-9365000D02*
X14805000Y-9395000D01*
X14805000Y-9365000D02*
X14775000Y-9395000D01*
X14841000Y-10600000D02*
X14871000Y-10630000D01*
X14871000Y-10600000D02*
X14841000Y-10630000D01*
X14841000Y-10670000D02*
X14871000Y-10700000D01*
X14871000Y-10670000D02*
X14841000Y-10700000D01*
X14841000Y-10741000D02*
X14871000Y-10771000D01*
X14871000Y-10741000D02*
X14841000Y-10771000D01*
X14855000Y-8965000D02*
X14885000Y-8995000D01*
X14885000Y-8965000D02*
X14855000Y-8995000D01*
X14855000Y-9065000D02*
X14885000Y-9095000D01*
X14885000Y-9065000D02*
X14855000Y-9095000D01*
X14855000Y-9165000D02*
X14885000Y-9195000D01*
X14885000Y-9165000D02*
X14855000Y-9195000D01*
X14855000Y-9265000D02*
X14885000Y-9295000D01*
X14885000Y-9265000D02*
X14855000Y-9295000D01*
X14855000Y-9365000D02*
X14885000Y-9395000D01*
X14885000Y-9365000D02*
X14855000Y-9395000D01*
X14925000Y-10185000D02*
X14955000Y-10215000D01*
X14955000Y-10185000D02*
X14925000Y-10215000D01*
X14933880Y-10516000D02*
X14963880Y-10546000D01*
X14963880Y-10516000D02*
X14933880Y-10546000D01*
X15005000Y-10516000D02*
X15035000Y-10546000D01*
X15035000Y-10516000D02*
X15005000Y-10546000D01*
D11*
X12545119Y-11395976D02*
X12545119Y-11195976D01*
X12545119Y-11195976D02*
X12592738Y-11195976D01*
X12592738Y-11195976D02*
X12621309Y-11205500D01*
X12621309Y-11205500D02*
X12640357Y-11224548D01*
X12640357Y-11224548D02*
X12649881Y-11243595D01*
X12649881Y-11243595D02*
X12659405Y-11281690D01*
X12659405Y-11281690D02*
X12659405Y-11310262D01*
X12659405Y-11310262D02*
X12649881Y-11348357D01*
X12649881Y-11348357D02*
X12640357Y-11367405D01*
X12640357Y-11367405D02*
X12621309Y-11386452D01*
X12621309Y-11386452D02*
X12592738Y-11395976D01*
X12592738Y-11395976D02*
X12545119Y-11395976D01*
X12745119Y-11395976D02*
X12745119Y-11262643D01*
X12745119Y-11300738D02*
X12754643Y-11281690D01*
X12754643Y-11281690D02*
X12764167Y-11272167D01*
X12764167Y-11272167D02*
X12783214Y-11262643D01*
X12783214Y-11262643D02*
X12802262Y-11262643D01*
X12868928Y-11395976D02*
X12868928Y-11262643D01*
X12868928Y-11195976D02*
X12859405Y-11205500D01*
X12859405Y-11205500D02*
X12868928Y-11215024D01*
X12868928Y-11215024D02*
X12878452Y-11205500D01*
X12878452Y-11205500D02*
X12868928Y-11195976D01*
X12868928Y-11195976D02*
X12868928Y-11215024D01*
X12992738Y-11395976D02*
X12973690Y-11386452D01*
X12973690Y-11386452D02*
X12964167Y-11367405D01*
X12964167Y-11367405D02*
X12964167Y-11195976D01*
X13097500Y-11395976D02*
X13078452Y-11386452D01*
X13078452Y-11386452D02*
X13068928Y-11367405D01*
X13068928Y-11367405D02*
X13068928Y-11195976D01*
X13293690Y-11395976D02*
X13293690Y-11195976D01*
X13293690Y-11195976D02*
X13360357Y-11338833D01*
X13360357Y-11338833D02*
X13427024Y-11195976D01*
X13427024Y-11195976D02*
X13427024Y-11395976D01*
X13607976Y-11395976D02*
X13607976Y-11291214D01*
X13607976Y-11291214D02*
X13598452Y-11272167D01*
X13598452Y-11272167D02*
X13579405Y-11262643D01*
X13579405Y-11262643D02*
X13541309Y-11262643D01*
X13541309Y-11262643D02*
X13522262Y-11272167D01*
X13607976Y-11386452D02*
X13588928Y-11395976D01*
X13588928Y-11395976D02*
X13541309Y-11395976D01*
X13541309Y-11395976D02*
X13522262Y-11386452D01*
X13522262Y-11386452D02*
X13512738Y-11367405D01*
X13512738Y-11367405D02*
X13512738Y-11348357D01*
X13512738Y-11348357D02*
X13522262Y-11329309D01*
X13522262Y-11329309D02*
X13541309Y-11319786D01*
X13541309Y-11319786D02*
X13588928Y-11319786D01*
X13588928Y-11319786D02*
X13607976Y-11310262D01*
X13703214Y-11262643D02*
X13703214Y-11462643D01*
X13703214Y-11272167D02*
X13722262Y-11262643D01*
X13722262Y-11262643D02*
X13760357Y-11262643D01*
X13760357Y-11262643D02*
X13779405Y-11272167D01*
X13779405Y-11272167D02*
X13788928Y-11281690D01*
X13788928Y-11281690D02*
X13798452Y-11300738D01*
X13798452Y-11300738D02*
X13798452Y-11357881D01*
X13798452Y-11357881D02*
X13788928Y-11376928D01*
X13788928Y-11376928D02*
X13779405Y-11386452D01*
X13779405Y-11386452D02*
X13760357Y-11395976D01*
X13760357Y-11395976D02*
X13722262Y-11395976D01*
X13722262Y-11395976D02*
X13703214Y-11386452D01*
X13884167Y-11376928D02*
X13893690Y-11386452D01*
X13893690Y-11386452D02*
X13884167Y-11395976D01*
X13884167Y-11395976D02*
X13874643Y-11386452D01*
X13874643Y-11386452D02*
X13884167Y-11376928D01*
X13884167Y-11376928D02*
X13884167Y-11395976D01*
X13884167Y-11272167D02*
X13893690Y-11281690D01*
X13893690Y-11281690D02*
X13884167Y-11291214D01*
X13884167Y-11291214D02*
X13874643Y-11281690D01*
X13874643Y-11281690D02*
X13884167Y-11272167D01*
X13884167Y-11272167D02*
X13884167Y-11291214D01*
D12*
X12267500Y-11727500D02*
X12297500Y-11757500D01*
X12297500Y-11727500D02*
X12267500Y-11757500D01*
D11*
X12583214Y-11615976D02*
X12602262Y-11615976D01*
X12602262Y-11615976D02*
X12621309Y-11625500D01*
X12621309Y-11625500D02*
X12630833Y-11635024D01*
X12630833Y-11635024D02*
X12640357Y-11654071D01*
X12640357Y-11654071D02*
X12649881Y-11692167D01*
X12649881Y-11692167D02*
X12649881Y-11739786D01*
X12649881Y-11739786D02*
X12640357Y-11777881D01*
X12640357Y-11777881D02*
X12630833Y-11796928D01*
X12630833Y-11796928D02*
X12621309Y-11806452D01*
X12621309Y-11806452D02*
X12602262Y-11815976D01*
X12602262Y-11815976D02*
X12583214Y-11815976D01*
X12583214Y-11815976D02*
X12564167Y-11806452D01*
X12564167Y-11806452D02*
X12554643Y-11796928D01*
X12554643Y-11796928D02*
X12545119Y-11777881D01*
X12545119Y-11777881D02*
X12535595Y-11739786D01*
X12535595Y-11739786D02*
X12535595Y-11692167D01*
X12535595Y-11692167D02*
X12545119Y-11654071D01*
X12545119Y-11654071D02*
X12554643Y-11635024D01*
X12554643Y-11635024D02*
X12564167Y-11625500D01*
X12564167Y-11625500D02*
X12583214Y-11615976D01*
X12735595Y-11796928D02*
X12745119Y-11806452D01*
X12745119Y-11806452D02*
X12735595Y-11815976D01*
X12735595Y-11815976D02*
X12726071Y-11806452D01*
X12726071Y-11806452D02*
X12735595Y-11796928D01*
X12735595Y-11796928D02*
X12735595Y-11815976D01*
X12811786Y-11615976D02*
X12935595Y-11615976D01*
X12935595Y-11615976D02*
X12868928Y-11692167D01*
X12868928Y-11692167D02*
X12897500Y-11692167D01*
X12897500Y-11692167D02*
X12916548Y-11701690D01*
X12916548Y-11701690D02*
X12926071Y-11711214D01*
X12926071Y-11711214D02*
X12935595Y-11730262D01*
X12935595Y-11730262D02*
X12935595Y-11777881D01*
X12935595Y-11777881D02*
X12926071Y-11796928D01*
X12926071Y-11796928D02*
X12916548Y-11806452D01*
X12916548Y-11806452D02*
X12897500Y-11815976D01*
X12897500Y-11815976D02*
X12840357Y-11815976D01*
X12840357Y-11815976D02*
X12821309Y-11806452D01*
X12821309Y-11806452D02*
X12811786Y-11796928D01*
X13059405Y-11615976D02*
X13078452Y-11615976D01*
X13078452Y-11615976D02*
X13097500Y-11625500D01*
X13097500Y-11625500D02*
X13107024Y-11635024D01*
X13107024Y-11635024D02*
X13116548Y-11654071D01*
X13116548Y-11654071D02*
X13126071Y-11692167D01*
X13126071Y-11692167D02*
X13126071Y-11739786D01*
X13126071Y-11739786D02*
X13116548Y-11777881D01*
X13116548Y-11777881D02*
X13107024Y-11796928D01*
X13107024Y-11796928D02*
X13097500Y-11806452D01*
X13097500Y-11806452D02*
X13078452Y-11815976D01*
X13078452Y-11815976D02*
X13059405Y-11815976D01*
X13059405Y-11815976D02*
X13040357Y-11806452D01*
X13040357Y-11806452D02*
X13030833Y-11796928D01*
X13030833Y-11796928D02*
X13021309Y-11777881D01*
X13021309Y-11777881D02*
X13011786Y-11739786D01*
X13011786Y-11739786D02*
X13011786Y-11692167D01*
X13011786Y-11692167D02*
X13021309Y-11654071D01*
X13021309Y-11654071D02*
X13030833Y-11635024D01*
X13030833Y-11635024D02*
X13040357Y-11625500D01*
X13040357Y-11625500D02*
X13059405Y-11615976D01*
X13249881Y-11615976D02*
X13268929Y-11615976D01*
X13268929Y-11615976D02*
X13287976Y-11625500D01*
X13287976Y-11625500D02*
X13297500Y-11635024D01*
X13297500Y-11635024D02*
X13307024Y-11654071D01*
X13307024Y-11654071D02*
X13316548Y-11692167D01*
X13316548Y-11692167D02*
X13316548Y-11739786D01*
X13316548Y-11739786D02*
X13307024Y-11777881D01*
X13307024Y-11777881D02*
X13297500Y-11796928D01*
X13297500Y-11796928D02*
X13287976Y-11806452D01*
X13287976Y-11806452D02*
X13268929Y-11815976D01*
X13268929Y-11815976D02*
X13249881Y-11815976D01*
X13249881Y-11815976D02*
X13230833Y-11806452D01*
X13230833Y-11806452D02*
X13221309Y-11796928D01*
X13221309Y-11796928D02*
X13211786Y-11777881D01*
X13211786Y-11777881D02*
X13202262Y-11739786D01*
X13202262Y-11739786D02*
X13202262Y-11692167D01*
X13202262Y-11692167D02*
X13211786Y-11654071D01*
X13211786Y-11654071D02*
X13221309Y-11635024D01*
X13221309Y-11635024D02*
X13230833Y-11625500D01*
X13230833Y-11625500D02*
X13249881Y-11615976D01*
X13402262Y-11815976D02*
X13402262Y-11682643D01*
X13402262Y-11701690D02*
X13411786Y-11692167D01*
X13411786Y-11692167D02*
X13430833Y-11682643D01*
X13430833Y-11682643D02*
X13459405Y-11682643D01*
X13459405Y-11682643D02*
X13478452Y-11692167D01*
X13478452Y-11692167D02*
X13487976Y-11711214D01*
X13487976Y-11711214D02*
X13487976Y-11815976D01*
X13487976Y-11711214D02*
X13497500Y-11692167D01*
X13497500Y-11692167D02*
X13516548Y-11682643D01*
X13516548Y-11682643D02*
X13545119Y-11682643D01*
X13545119Y-11682643D02*
X13564167Y-11692167D01*
X13564167Y-11692167D02*
X13573690Y-11711214D01*
X13573690Y-11711214D02*
X13573690Y-11815976D01*
X13668929Y-11815976D02*
X13668929Y-11682643D01*
X13668929Y-11701690D02*
X13678452Y-11692167D01*
X13678452Y-11692167D02*
X13697500Y-11682643D01*
X13697500Y-11682643D02*
X13726071Y-11682643D01*
X13726071Y-11682643D02*
X13745119Y-11692167D01*
X13745119Y-11692167D02*
X13754643Y-11711214D01*
X13754643Y-11711214D02*
X13754643Y-11815976D01*
X13754643Y-11711214D02*
X13764167Y-11692167D01*
X13764167Y-11692167D02*
X13783214Y-11682643D01*
X13783214Y-11682643D02*
X13811786Y-11682643D01*
X13811786Y-11682643D02*
X13830833Y-11692167D01*
X13830833Y-11692167D02*
X13840357Y-11711214D01*
X13840357Y-11711214D02*
X13840357Y-11815976D01*
X14198452Y-11606452D02*
X14027024Y-11863595D01*
X14423214Y-11615976D02*
X14442262Y-11615976D01*
X14442262Y-11615976D02*
X14461310Y-11625500D01*
X14461310Y-11625500D02*
X14470833Y-11635024D01*
X14470833Y-11635024D02*
X14480357Y-11654071D01*
X14480357Y-11654071D02*
X14489881Y-11692167D01*
X14489881Y-11692167D02*
X14489881Y-11739786D01*
X14489881Y-11739786D02*
X14480357Y-11777881D01*
X14480357Y-11777881D02*
X14470833Y-11796928D01*
X14470833Y-11796928D02*
X14461310Y-11806452D01*
X14461310Y-11806452D02*
X14442262Y-11815976D01*
X14442262Y-11815976D02*
X14423214Y-11815976D01*
X14423214Y-11815976D02*
X14404167Y-11806452D01*
X14404167Y-11806452D02*
X14394643Y-11796928D01*
X14394643Y-11796928D02*
X14385119Y-11777881D01*
X14385119Y-11777881D02*
X14375595Y-11739786D01*
X14375595Y-11739786D02*
X14375595Y-11692167D01*
X14375595Y-11692167D02*
X14385119Y-11654071D01*
X14385119Y-11654071D02*
X14394643Y-11635024D01*
X14394643Y-11635024D02*
X14404167Y-11625500D01*
X14404167Y-11625500D02*
X14423214Y-11615976D01*
X14575595Y-11796928D02*
X14585119Y-11806452D01*
X14585119Y-11806452D02*
X14575595Y-11815976D01*
X14575595Y-11815976D02*
X14566071Y-11806452D01*
X14566071Y-11806452D02*
X14575595Y-11796928D01*
X14575595Y-11796928D02*
X14575595Y-11815976D01*
X14708929Y-11615976D02*
X14727976Y-11615976D01*
X14727976Y-11615976D02*
X14747024Y-11625500D01*
X14747024Y-11625500D02*
X14756548Y-11635024D01*
X14756548Y-11635024D02*
X14766071Y-11654071D01*
X14766071Y-11654071D02*
X14775595Y-11692167D01*
X14775595Y-11692167D02*
X14775595Y-11739786D01*
X14775595Y-11739786D02*
X14766071Y-11777881D01*
X14766071Y-11777881D02*
X14756548Y-11796928D01*
X14756548Y-11796928D02*
X14747024Y-11806452D01*
X14747024Y-11806452D02*
X14727976Y-11815976D01*
X14727976Y-11815976D02*
X14708929Y-11815976D01*
X14708929Y-11815976D02*
X14689881Y-11806452D01*
X14689881Y-11806452D02*
X14680357Y-11796928D01*
X14680357Y-11796928D02*
X14670833Y-11777881D01*
X14670833Y-11777881D02*
X14661310Y-11739786D01*
X14661310Y-11739786D02*
X14661310Y-11692167D01*
X14661310Y-11692167D02*
X14670833Y-11654071D01*
X14670833Y-11654071D02*
X14680357Y-11635024D01*
X14680357Y-11635024D02*
X14689881Y-11625500D01*
X14689881Y-11625500D02*
X14708929Y-11615976D01*
X14966071Y-11815976D02*
X14851786Y-11815976D01*
X14908929Y-11815976D02*
X14908929Y-11615976D01*
X14908929Y-11615976D02*
X14889881Y-11644548D01*
X14889881Y-11644548D02*
X14870833Y-11663595D01*
X14870833Y-11663595D02*
X14851786Y-11673119D01*
X15156548Y-11815976D02*
X15042262Y-11815976D01*
X15099405Y-11815976D02*
X15099405Y-11615976D01*
X15099405Y-11615976D02*
X15080357Y-11644548D01*
X15080357Y-11644548D02*
X15061310Y-11663595D01*
X15061310Y-11663595D02*
X15042262Y-11673119D01*
X15270833Y-11701690D02*
X15251786Y-11692167D01*
X15251786Y-11692167D02*
X15242262Y-11682643D01*
X15242262Y-11682643D02*
X15232738Y-11663595D01*
X15232738Y-11663595D02*
X15232738Y-11654071D01*
X15232738Y-11654071D02*
X15242262Y-11635024D01*
X15242262Y-11635024D02*
X15251786Y-11625500D01*
X15251786Y-11625500D02*
X15270833Y-11615976D01*
X15270833Y-11615976D02*
X15308929Y-11615976D01*
X15308929Y-11615976D02*
X15327976Y-11625500D01*
X15327976Y-11625500D02*
X15337500Y-11635024D01*
X15337500Y-11635024D02*
X15347024Y-11654071D01*
X15347024Y-11654071D02*
X15347024Y-11663595D01*
X15347024Y-11663595D02*
X15337500Y-11682643D01*
X15337500Y-11682643D02*
X15327976Y-11692167D01*
X15327976Y-11692167D02*
X15308929Y-11701690D01*
X15308929Y-11701690D02*
X15270833Y-11701690D01*
X15270833Y-11701690D02*
X15251786Y-11711214D01*
X15251786Y-11711214D02*
X15242262Y-11720738D01*
X15242262Y-11720738D02*
X15232738Y-11739786D01*
X15232738Y-11739786D02*
X15232738Y-11777881D01*
X15232738Y-11777881D02*
X15242262Y-11796928D01*
X15242262Y-11796928D02*
X15251786Y-11806452D01*
X15251786Y-11806452D02*
X15270833Y-11815976D01*
X15270833Y-11815976D02*
X15308929Y-11815976D01*
X15308929Y-11815976D02*
X15327976Y-11806452D01*
X15327976Y-11806452D02*
X15337500Y-11796928D01*
X15337500Y-11796928D02*
X15347024Y-11777881D01*
X15347024Y-11777881D02*
X15347024Y-11739786D01*
X15347024Y-11739786D02*
X15337500Y-11720738D01*
X15337500Y-11720738D02*
X15327976Y-11711214D01*
X15327976Y-11711214D02*
X15308929Y-11701690D01*
X15423214Y-11615976D02*
X15423214Y-11654071D01*
X15499405Y-11615976D02*
X15499405Y-11654071D01*
X15762262Y-11892167D02*
X15752738Y-11882643D01*
X15752738Y-11882643D02*
X15733691Y-11854071D01*
X15733691Y-11854071D02*
X15724167Y-11835024D01*
X15724167Y-11835024D02*
X15714643Y-11806452D01*
X15714643Y-11806452D02*
X15705119Y-11758833D01*
X15705119Y-11758833D02*
X15705119Y-11720738D01*
X15705119Y-11720738D02*
X15714643Y-11673119D01*
X15714643Y-11673119D02*
X15724167Y-11644548D01*
X15724167Y-11644548D02*
X15733691Y-11625500D01*
X15733691Y-11625500D02*
X15752738Y-11596928D01*
X15752738Y-11596928D02*
X15762262Y-11587405D01*
X15933691Y-11615976D02*
X15838452Y-11615976D01*
X15838452Y-11615976D02*
X15828929Y-11711214D01*
X15828929Y-11711214D02*
X15838452Y-11701690D01*
X15838452Y-11701690D02*
X15857500Y-11692167D01*
X15857500Y-11692167D02*
X15905119Y-11692167D01*
X15905119Y-11692167D02*
X15924167Y-11701690D01*
X15924167Y-11701690D02*
X15933691Y-11711214D01*
X15933691Y-11711214D02*
X15943214Y-11730262D01*
X15943214Y-11730262D02*
X15943214Y-11777881D01*
X15943214Y-11777881D02*
X15933691Y-11796928D01*
X15933691Y-11796928D02*
X15924167Y-11806452D01*
X15924167Y-11806452D02*
X15905119Y-11815976D01*
X15905119Y-11815976D02*
X15857500Y-11815976D01*
X15857500Y-11815976D02*
X15838452Y-11806452D01*
X15838452Y-11806452D02*
X15828929Y-11796928D01*
X16124167Y-11615976D02*
X16028929Y-11615976D01*
X16028929Y-11615976D02*
X16019405Y-11711214D01*
X16019405Y-11711214D02*
X16028929Y-11701690D01*
X16028929Y-11701690D02*
X16047976Y-11692167D01*
X16047976Y-11692167D02*
X16095595Y-11692167D01*
X16095595Y-11692167D02*
X16114643Y-11701690D01*
X16114643Y-11701690D02*
X16124167Y-11711214D01*
X16124167Y-11711214D02*
X16133691Y-11730262D01*
X16133691Y-11730262D02*
X16133691Y-11777881D01*
X16133691Y-11777881D02*
X16124167Y-11796928D01*
X16124167Y-11796928D02*
X16114643Y-11806452D01*
X16114643Y-11806452D02*
X16095595Y-11815976D01*
X16095595Y-11815976D02*
X16047976Y-11815976D01*
X16047976Y-11815976D02*
X16028929Y-11806452D01*
X16028929Y-11806452D02*
X16019405Y-11796928D01*
X16339405Y-11815976D02*
X16339405Y-11615976D01*
X16425119Y-11815976D02*
X16425119Y-11711214D01*
X16425119Y-11711214D02*
X16415595Y-11692167D01*
X16415595Y-11692167D02*
X16396548Y-11682643D01*
X16396548Y-11682643D02*
X16367976Y-11682643D01*
X16367976Y-11682643D02*
X16348929Y-11692167D01*
X16348929Y-11692167D02*
X16339405Y-11701690D01*
X16548929Y-11815976D02*
X16529881Y-11806452D01*
X16529881Y-11806452D02*
X16520357Y-11796928D01*
X16520357Y-11796928D02*
X16510833Y-11777881D01*
X16510833Y-11777881D02*
X16510833Y-11720738D01*
X16510833Y-11720738D02*
X16520357Y-11701690D01*
X16520357Y-11701690D02*
X16529881Y-11692167D01*
X16529881Y-11692167D02*
X16548929Y-11682643D01*
X16548929Y-11682643D02*
X16577500Y-11682643D01*
X16577500Y-11682643D02*
X16596548Y-11692167D01*
X16596548Y-11692167D02*
X16606072Y-11701690D01*
X16606072Y-11701690D02*
X16615595Y-11720738D01*
X16615595Y-11720738D02*
X16615595Y-11777881D01*
X16615595Y-11777881D02*
X16606072Y-11796928D01*
X16606072Y-11796928D02*
X16596548Y-11806452D01*
X16596548Y-11806452D02*
X16577500Y-11815976D01*
X16577500Y-11815976D02*
X16548929Y-11815976D01*
X16729881Y-11815976D02*
X16710833Y-11806452D01*
X16710833Y-11806452D02*
X16701310Y-11787405D01*
X16701310Y-11787405D02*
X16701310Y-11615976D01*
X16882262Y-11806452D02*
X16863215Y-11815976D01*
X16863215Y-11815976D02*
X16825119Y-11815976D01*
X16825119Y-11815976D02*
X16806072Y-11806452D01*
X16806072Y-11806452D02*
X16796548Y-11787405D01*
X16796548Y-11787405D02*
X16796548Y-11711214D01*
X16796548Y-11711214D02*
X16806072Y-11692167D01*
X16806072Y-11692167D02*
X16825119Y-11682643D01*
X16825119Y-11682643D02*
X16863215Y-11682643D01*
X16863215Y-11682643D02*
X16882262Y-11692167D01*
X16882262Y-11692167D02*
X16891786Y-11711214D01*
X16891786Y-11711214D02*
X16891786Y-11730262D01*
X16891786Y-11730262D02*
X16796548Y-11749309D01*
X16967976Y-11806452D02*
X16987024Y-11815976D01*
X16987024Y-11815976D02*
X17025119Y-11815976D01*
X17025119Y-11815976D02*
X17044167Y-11806452D01*
X17044167Y-11806452D02*
X17053691Y-11787405D01*
X17053691Y-11787405D02*
X17053691Y-11777881D01*
X17053691Y-11777881D02*
X17044167Y-11758833D01*
X17044167Y-11758833D02*
X17025119Y-11749309D01*
X17025119Y-11749309D02*
X16996548Y-11749309D01*
X16996548Y-11749309D02*
X16977500Y-11739786D01*
X16977500Y-11739786D02*
X16967976Y-11720738D01*
X16967976Y-11720738D02*
X16967976Y-11711214D01*
X16967976Y-11711214D02*
X16977500Y-11692167D01*
X16977500Y-11692167D02*
X16996548Y-11682643D01*
X16996548Y-11682643D02*
X17025119Y-11682643D01*
X17025119Y-11682643D02*
X17044167Y-11692167D01*
X17120357Y-11892167D02*
X17129881Y-11882643D01*
X17129881Y-11882643D02*
X17148929Y-11854071D01*
X17148929Y-11854071D02*
X17158453Y-11835024D01*
X17158453Y-11835024D02*
X17167976Y-11806452D01*
X17167976Y-11806452D02*
X17177500Y-11758833D01*
X17177500Y-11758833D02*
X17177500Y-11720738D01*
X17177500Y-11720738D02*
X17167976Y-11673119D01*
X17167976Y-11673119D02*
X17158453Y-11644548D01*
X17158453Y-11644548D02*
X17148929Y-11625500D01*
X17148929Y-11625500D02*
X17129881Y-11596928D01*
X17129881Y-11596928D02*
X17120357Y-11587405D01*
M02*
